<svg xmlns="http://www.w3.org/2000/svg" width="88.149" height="117.322" viewBox="0 0 88.149 117.322">
  <g id="banner-logo" transform="translate(-58.217 31.245)">
    <g id="Group_10" data-name="Group 10" transform="translate(-82.132 -62)">
      <path id="Path_5" data-name="Path 5" d="M428.117,104.338a25.128,25.128,0,0,1-8.694-27.1c3.2-10.77,12.666-16.863,20.506-17.694-.123.378-.488.464-.755.647a39.89,39.89,0,0,0-9.747,8.875c-4.3,5.794-4.742,11.938-1.732,18.425a.938.938,0,0,0,1.194.612c2.279-.366,4.526-.936,6.836-1.114,5.218-.4,9.573,1.589,13.378,4.944a2.891,2.891,0,0,1,.678,4,3.578,3.578,0,0,1-4.319,1.52c-2.2-.8-4.394-1.627-6.555-2.529a1.13,1.13,0,0,0-1.612.432,42.433,42.433,0,0,1-8.127,8.214C428.816,103.832,428.456,104.09,428.117,104.338Z" transform="translate(-257.337 -20.568)" fill="#fff"/>
      <path id="Path_6" data-name="Path 6" d="M526.883,99.423h-5.307V83.206h5.307Z" transform="translate(-331.083 -37.478)" fill="#fff"/>
      <path id="Path_7" data-name="Path 7" d="M496.337,96.413h5.315v12.434h-5.315Z" transform="translate(-313.049 -46.914)" fill="#fff"/>
      <path id="Path_8" data-name="Path 8" d="M476.351,115.958h-5.324v-9.6h5.324Z" transform="translate(-294.964 -54.019)" fill="#fff"/>
      <path id="Path_9" data-name="Path 9" d="M535.88,200.573a2.03,2.03,0,0,1,1.265-1.889,1.945,1.945,0,0,1,2.307.346c1.271,1.356,2.5,2.762,3.651,4.218a2.153,2.153,0,0,1-3.317,2.72c-1.194-1.288-2.316-2.642-3.464-3.972A2.111,2.111,0,0,1,535.88,200.573Z" transform="translate(-341.303 -119.831)" fill="#fff"/>
      <path id="Path_10" data-name="Path 10" d="M513.606,226.419a2.06,2.06,0,0,1-1.681-.61c-1.162-1.319-2.337-2.628-3.447-3.991a2.156,2.156,0,0,1,3.228-2.854c1.215,1.315,2.377,2.684,3.509,4.072a1.947,1.947,0,0,1,.14,2.243A2,2,0,0,1,513.606,226.419Z" transform="translate(-321.362 -133.993)" fill="#fff"/>
      <path id="Path_11" data-name="Path 11" d="M498.632,232.408a1.76,1.76,0,0,1-1.444-.486c-1.016-1.1-2.043-2.188-3.015-3.324a1.774,1.774,0,0,1,.152-2.531,1.8,1.8,0,0,1,2.546.045c1.061,1.094,2.078,2.234,3.069,3.392a1.65,1.65,0,0,1,.162,1.9A1.7,1.7,0,0,1,498.632,232.408Z" transform="translate(-311.174 -139.194)" fill="#fff"/>
      <path id="Path_12" data-name="Path 12" d="M522.919,211.608a2.129,2.129,0,0,1,1.255-2.191,1.985,1.985,0,0,1,2.391.391c1.239,1.34,2.441,2.719,3.583,4.142a2.105,2.105,0,0,1-.323,2.815,2.024,2.024,0,0,1-2.817.063c-1.331-1.392-2.554-2.888-3.8-4.359A1.4,1.4,0,0,1,522.919,211.608Z" transform="translate(-332.042 -127.496)" fill="#fff"/>
      <path id="Path_13" data-name="Path 13" d="M490.513,87.744c-1.728-4.942-7.357-12-9.585-11.975a20.275,20.275,0,0,1,3.688,14.29,13.659,13.659,0,0,1-3.5,8.091l0,.02s-2.492,2.908-4.837,3.257c-.464-.31-.941-.605-1.444-.873-3.347-1.781-6.832-3.2-10.784-2.44a2.979,2.979,0,0,0,.739.33,19.61,19.61,0,0,1,7.815,4.49c1.612,1.647,1.846,3.379.767,5.051a4.429,4.429,0,0,1-5.218,1.878q-3.069-1.091-6.084-2.332a1.176,1.176,0,0,0-1.645.457,42.041,42.041,0,0,1-6.452,6.685c-.9.75-1.863,1.423-2.77,2.164a2.038,2.038,0,0,0-.529,2.6c.577.847,1.417.93,2.528.305a55.073,55.073,0,0,0,4.822-3.319,12.741,12.741,0,0,1-3.893,3.813c-.359.2-.862.342-.808.936a1.242,1.242,0,0,0,.886,1.047,2.481,2.481,0,0,0,2.275-.106c1.552-.829,2.9-1.96,4.425-2.825a.641.641,0,0,1,.619-.5.681.681,0,0,1-.484.627c-.954,1.586-2.6,2.453-4,3.622,1.4.879,4.842.307,5.956-.9a2.4,2.4,0,0,1-.468-3.032c.8-1.388,2.1-1.373,3.425-.909,1.173-2.272,1.855-2.653,4.288-2.4a3.146,3.146,0,0,1,3.7-2.7c.325-1.961,1.23-2.936,2.783-3.043a2.938,2.938,0,0,1,2.554,1.095c1.136,1.319,2.3,2.615,3.441,3.912A24.506,24.506,0,0,0,490.513,87.744Z" transform="translate(-280.228 -32.164)" fill="#fff"/>
      <path id="Path_14" data-name="Path 14" d="M419.456,30.755a35,35,0,1,0,35,35A35,35,0,0,0,419.456,30.755Zm0,67.439A32.439,32.439,0,1,1,451.9,65.755,32.439,32.439,0,0,1,419.456,98.194Z" transform="translate(-233.107)" fill="#fff"/>
    </g>
    <g id="Group_3" data-name="Group 3" transform="translate(58.653 77.424)">
      <path id="Path_15" data-name="Path 15" d="M212.6,202.551V194.6a10.591,10.591,0,0,1,4.7-.106,2.786,2.786,0,0,1,2.395,2.833c.067,1.713.015,3.43.015,5.224Zm5.6-1.317v-3.59a1.819,1.819,0,0,0-1.781-1.932,16.941,16.941,0,0,0-2.259-.019v5.54Z" transform="translate(-168.966 -194.26)" fill="#fff"/>
      <path id="Path_16" data-name="Path 16" d="M264.946,198.633c0,2.613-1.5,4.29-3.847,4.285-2.287-.005-3.807-1.673-3.83-4.2-.024-2.583,1.513-4.343,3.8-4.356C263.4,194.345,264.941,196.049,264.946,198.633Zm-1.629.007a3.547,3.547,0,0,0-.463-1.939,2.022,2.022,0,0,0-3.252-.322,4.089,4.089,0,0,0-.073,4.435,1.926,1.926,0,0,0,1.557.748C262.46,201.572,263.321,200.452,263.317,198.641Z" transform="translate(-200.881 -194.323)" fill="#fff"/>
      <path id="Path_17" data-name="Path 17" d="M105.919,194.718a2.255,2.255,0,0,1,1.54,0c0,1.5-.012,3.031.005,4.559a2.153,2.153,0,0,0,.826,1.878,2.075,2.075,0,0,0,3.351-1.336,13.564,13.564,0,0,0,.107-2.128c.011-.714.061-1.5-.7-1.881-.7-.354-1.154.3-1.685.621-.337-.237-.606-.486-.306-.91A2.351,2.351,0,0,1,111,194.358a1.749,1.749,0,0,1,1.8,1.111,7.335,7.335,0,0,1-.191,5.893,3.39,3.39,0,0,1-3.717,1.518,3.227,3.227,0,0,1-2.773-2.6A35.319,35.319,0,0,1,105.919,194.718Z" transform="translate(-92.726 -194.322)" fill="#fff"/>
      <path id="Path_18" data-name="Path 18" d="M345.442,198.219c.343.747.139,1.07-.655,1.1a1.977,1.977,0,0,1-2.311-2.013c-.015-.224,0-.45,0-.675-.006-2.087.106-2.2,2.27-2.275,3.272-.115,5.042,1.743,4.685,4.919-.295,2.624-2.882,4.2-5.853,3.546-.347-.077-.763-.058-1.049-.433a2.423,2.423,0,0,1,.292-1.18,4.933,4.933,0,0,0,3.067.158,2.788,2.788,0,0,0,1.97-3.427,2.61,2.61,0,0,0-2.9-2.232c-.569.013-1.084.04-1.015.82.059.665-.243,1.517.851,1.643C345.009,198.2,345.229,198.2,345.442,198.219Z" transform="translate(-261.757 -194.32)" fill="#fff"/>
      <path id="Path_19" data-name="Path 19" d="M59.743,194.589a10.84,10.84,0,0,1,4.641-.1,2.8,2.8,0,0,1,2.436,2.92c.057,1.679.013,3.363.013,5.038-.429.35-.879.1-1.475.225,0-1.426-.047-2.758.01-4.086.116-2.727-1.216-3.034-3.6-2.911-.628.032-.566.47-.567.882,0,1.977,0,3.955,0,5.915a2.437,2.437,0,0,1-1.458.112Z" transform="translate(-59.743 -194.263)" fill="#fff"/>
      <path id="Path_20" data-name="Path 20" d="M149.759,202.546v-1.29h5.028c0-1.079.024-2.042-.005-3a2.333,2.333,0,0,0-2.549-2.612,4.719,4.719,0,0,0-2.06.219,1.541,1.541,0,0,1-.245-1.311,6.781,6.781,0,0,1,4.568.17,2.819,2.819,0,0,1,1.68,2.349c.226,1.335.016,2.687.143,3.994.334.333.762.069,1.118.281.23.361.066.756.085,1.2Z" transform="translate(-124.062 -194.234)" fill="#fff"/>
      <path id="Path_21" data-name="Path 21" d="M311.6,202.634h-3.784a2.127,2.127,0,0,1-.067-1.173c.737-.321,1.552.045,2.375-.256,0-1.391.045-2.809-.014-4.221-.045-1.079-.556-1.335-2.129-1.228-.23-1.28-.118-1.413,1.171-1.4a2.127,2.127,0,0,1,2.427,2.2C311.663,198.559,311.6,200.57,311.6,202.634Z" transform="translate(-236.915 -194.321)" fill="#fff"/>
      <path id="Path_22" data-name="Path 22" d="M292.109,202.632H288.3a2.474,2.474,0,0,1-.1-1.168c.767-.29,1.571-.006,2.418-.21,0-1.471.045-2.921-.015-4.366-.042-1-.6-1.249-2.112-1.106-.235-1.285-.115-1.433,1.154-1.424,1.453.011,2.366.676,2.439,2.076C292.187,198.475,292.109,200.526,292.109,202.632Z" transform="translate(-222.967 -194.322)" fill="#fff"/>
      <path id="Path_23" data-name="Path 23" d="M94.215,203.162a2.688,2.688,0,0,1-1.418-.024v-7.89a2.738,2.738,0,0,1,1.418-.068Z" transform="translate(-83.361 -194.868)" fill="#fff"/>
      <path id="Path_24" data-name="Path 24" d="M182.62,195.194a2.718,2.718,0,0,1,1.428.05v7.885a2.709,2.709,0,0,1-1.428.043Z" transform="translate(-147.542 -194.87)" fill="#fff"/>
      <path id="Path_25" data-name="Path 25" d="M140.426,195.2v4.146h-1.439v-4.127A2.331,2.331,0,0,1,140.426,195.2Z" transform="translate(-116.365 -194.851)" fill="#fff"/>
      <path id="Path_26" data-name="Path 26" d="M245.7,195.2a2.738,2.738,0,0,1,1.424.041V199.3a2.752,2.752,0,0,1-1.424.053Z" transform="translate(-192.612 -194.871)" fill="#fff"/>
      <path id="Path_27" data-name="Path 27" d="M331.419,199.326a2.722,2.722,0,0,1-1.408,0v-4.08a2.778,2.778,0,0,1,1.408-.069Z" transform="translate(-252.857 -194.865)" fill="#fff"/>
    </g>
    <g id="Group_4" data-name="Group 4" transform="translate(58.217 48.433)">
      <path id="Path_28" data-name="Path 28" d="M82.19,107.415a1.524,1.524,0,0,0-.828.468,1.811,1.811,0,0,0-.377.919,9.868,9.868,0,0,0-.09,1.469v4.611a22.352,22.352,0,0,1-4.619,1.466,27.272,27.272,0,0,1-5.456.5,15.056,15.056,0,0,1-3.905-.476,12.353,12.353,0,0,1-3.167-1.313,10.8,10.8,0,0,1-2.437-1.977,11.313,11.313,0,0,1-1.731-2.486,11.974,11.974,0,0,1-1.026-2.83,13.5,13.5,0,0,1-.336-2.994,11.883,11.883,0,0,1,1.526-5.809,12.268,12.268,0,0,1,1.846-2.486A11.613,11.613,0,0,1,64.1,94.5a12.968,12.968,0,0,1,3.134-1.313,13.858,13.858,0,0,1,3.717-.476,16.677,16.677,0,0,1,2.15.123,14.032,14.032,0,0,1,1.665.312,11.5,11.5,0,0,1,1.3.41q.566.221,1.025.41t.861.312a2.819,2.819,0,0,0,.829.123,1.066,1.066,0,0,0,.878-.517,4.522,4.522,0,0,0,.6-1.206h.64v8.089h-.673a8.689,8.689,0,0,0-1.28-2.781,9.74,9.74,0,0,0-2-2.117,9.11,9.11,0,0,0-2.412-1.353A7.219,7.219,0,0,0,72,94.042a7.123,7.123,0,0,0-3.634.854A6.651,6.651,0,0,0,66,97.214a10.325,10.325,0,0,0-1.28,3.418,21.372,21.372,0,0,0-.386,4.141q0,1.463.131,2.835a15.61,15.61,0,0,0,.451,2.564,9.522,9.522,0,0,0,.87,2.177,6.186,6.186,0,0,0,1.37,1.693,5.857,5.857,0,0,0,1.944,1.093,8.062,8.062,0,0,0,2.617.386,11.083,11.083,0,0,0,2.076-.172,6.5,6.5,0,0,0,1.731-.6V110.27A6.838,6.838,0,0,0,75.4,108.8a1.874,1.874,0,0,0-.459-.919,1.783,1.783,0,0,0-.9-.468,6.832,6.832,0,0,0-1.477-.131v-.64H83.617v.64A6.279,6.279,0,0,0,82.19,107.415Z" transform="translate(-58.217 -92.68)" fill="#fff"/>
      <path id="Path_29" data-name="Path 29" d="M181.3,113.651a7.983,7.983,0,0,1-1.116,1.551,6.292,6.292,0,0,1-1.6,1.255,4.43,4.43,0,0,1-2.191.517,5.808,5.808,0,0,1-1.7-.238,6.784,6.784,0,0,1-1.452-.632,8.932,8.932,0,0,1-1.28-.911q-.607-.517-1.181-1.075-.673.492-1.493,1a13.08,13.08,0,0,1-1.788.919,12.911,12.911,0,0,1-2.084.673,10.458,10.458,0,0,1-2.4.263,8.727,8.727,0,0,1-2.88-.443,6.5,6.5,0,0,1-2.158-1.213,5.2,5.2,0,0,1-1.354-1.812,5.4,5.4,0,0,1-.468-2.238,5.933,5.933,0,0,1,.311-1.951,6.728,6.728,0,0,1,.837-1.656,7.708,7.708,0,0,1,1.231-1.377,13.79,13.79,0,0,1,1.493-1.148,15.118,15.118,0,0,1,1.624-.943q.837-.418,1.624-.762-.049-.115-.213-.508a9.359,9.359,0,0,1-.336-.992,13.956,13.956,0,0,1-.312-1.369,9.126,9.126,0,0,1-.139-1.623,6.02,6.02,0,0,1,.5-2.492,5.775,5.775,0,0,1,1.378-1.919,6.148,6.148,0,0,1,2.067-1.238,7.427,7.427,0,0,1,2.568-.434,6.735,6.735,0,0,1,2.149.319,5.021,5.021,0,0,1,1.616.868,3.8,3.8,0,0,1,1.017,1.278,3.549,3.549,0,0,1,.353,1.565,4.012,4.012,0,0,1-.566,2.138,6.3,6.3,0,0,1-1.427,1.622,9.82,9.82,0,0,1-1.912,1.2q-1.05.508-2,.9.607,1.033,1.222,1.968t1.272,1.813q.656.878,1.362,1.739t1.493,1.748q.525-.591,1.009-1.247a11.775,11.775,0,0,0,.845-1.313,7.883,7.883,0,0,0,.574-1.3,3.849,3.849,0,0,0,.213-1.214,1.741,1.741,0,0,0-.492-1.313,2.439,2.439,0,0,0-1.378-.607v-.673h7.121v.673a4.538,4.538,0,0,0-1.165.246,2.633,2.633,0,0,0-.87.55,4.977,4.977,0,0,0-.763.944q-.369.574-.861,1.411-.591,1.017-1.378,2.2a30.321,30.321,0,0,1-1.953,2.576q.788.722,1.419,1.247a11.6,11.6,0,0,0,1.173.87,4.785,4.785,0,0,0,1.026.508,3.015,3.015,0,0,0,.976.164,2,2,0,0,0,1.411-.533,5.8,5.8,0,0,0,1.05-1.354l.706.377Q181.741,112.838,181.3,113.651Zm-15.227-5.111q-.656-.968-1.231-1.969t-1.083-2.035a6.967,6.967,0,0,0-1.14.607,5.024,5.024,0,0,0-.984.845,3.768,3.768,0,0,0-.689,1.108,3.7,3.7,0,0,0-.255,1.411,5.577,5.577,0,0,0,.468,2.232,6.864,6.864,0,0,0,1.231,1.92A6.322,6.322,0,0,0,164.11,114a4.139,4.139,0,0,0,1.961.509,3.994,3.994,0,0,0,1.223-.2,8.553,8.553,0,0,0,1.124-.443,7.561,7.561,0,0,0,.87-.484q.361-.238.476-.32A33.466,33.466,0,0,1,166.07,108.539Zm4.677-10.551a5.3,5.3,0,0,0-.189-1.419,4.376,4.376,0,0,0-.534-1.214,2.873,2.873,0,0,0-.828-.853,1.909,1.909,0,0,0-1.075-.32,2.013,2.013,0,0,0-1.009.238,2.175,2.175,0,0,0-.689.607,2.48,2.48,0,0,0-.394.82,3.382,3.382,0,0,0-.123.894,5.618,5.618,0,0,0,.188,1.37q.189.747.435,1.444t.509,1.28q.262.583.41.878.41-.181.984-.443a4.616,4.616,0,0,0,1.083-.7,4,4,0,0,0,.87-1.067,3.084,3.084,0,0,0,.361-1.551Z" transform="translate(-128.2 -92.804)" fill="#fff"/>
      <path id="Path_30" data-name="Path 30" d="M276.248,117.7v-.64a8.722,8.722,0,0,0,1.69-.131,1.981,1.981,0,0,0,.993-.468,1.681,1.681,0,0,0,.468-.919,7.821,7.821,0,0,0,.115-1.468V96.6l-8.869,21.1h-.41l-9-20.97V114.07a2.827,2.827,0,0,0,.837,2.281,3.85,3.85,0,0,0,2.527.705v.64h-7.909v-.64a3.665,3.665,0,0,0,2.445-.705,2.857,2.857,0,0,0,.82-2.281V98.2a7.822,7.822,0,0,0-.115-1.468,1.679,1.679,0,0,0-.468-.919,1.983,1.983,0,0,0-.993-.468,8.743,8.743,0,0,0-1.69-.131v-.64h9.484l6.481,15.227,6.252-15.227h9.271v.64a8.877,8.877,0,0,0-1.7.131,1.989,1.989,0,0,0-1,.468,1.721,1.721,0,0,0-.476.919,7.3,7.3,0,0,0-.123,1.468V114.07a7.29,7.29,0,0,0,.123,1.468,1.722,1.722,0,0,0,.476.919,1.987,1.987,0,0,0,1,.468,8.853,8.853,0,0,0,1.7.131v.64Z" transform="translate(-200.031 -94.035)" fill="#fff"/>
    </g>
  </g>
</svg>
