<svg xmlns="http://www.w3.org/2000/svg" width="20.186" height="20.175" viewBox="0 0 20.186 20.175">
  <g id="ic-call" transform="translate(-482.067 -482.179)">
    <path id="Path_35" data-name="Path 35" d="M495.357,506.466c-6.64.223-15.657-8.424-12.718-17.033.5-1.45.9-1.444,1.786-.384a13.986,13.986,0,0,0,1.5,1.5c1.124.993,2.171,1.93.848,3.561-.393.484-.223,1.269-.1,1.913a8.8,8.8,0,0,0,5.857,5.849,3.082,3.082,0,0,0,2.656-.438c.806-.668,1.3-.372,1.9.269.923,1,1.893,1.953,2.877,2.891.579.553.493.848-.246,1.095A13.645,13.645,0,0,1,495.357,506.466Z" transform="translate(0 -4.117)" fill="#fff"/>
    <path id="Path_36" data-name="Path 36" d="M488.293,482.179a1.423,1.423,0,0,1,1,.479c.928.91,1.819,1.858,2.769,2.743.753.7.344,1.291-.151,1.8-.668.689-.91-.2-1.216-.48-1.074-.989-2.085-2.048-3.109-3.091-.254-.258-.621-.52-.269-.954A1.222,1.222,0,0,1,488.293,482.179Z" transform="translate(-3.436 0)" fill="#fff"/>
    <path id="Path_37" data-name="Path 37" d="M532.914,526.676a1.244,1.244,0,0,1-.532,1.013c-.441.323-.695-.066-.951-.317-1.12-1.1-2.238-2.2-3.332-3.327-.221-.227-.768-.472-.3-.886.377-.336.862-.965,1.378-.569a19.177,19.177,0,0,1,3.642,3.667A1.01,1.01,0,0,1,532.914,526.676Z" transform="translate(-30.661 -27.118)" fill="#fff"/>
  </g>
</svg>
