<svg id="ic-facebook" xmlns="http://www.w3.org/2000/svg" width="29.658" height="29.658" viewBox="0 0 29.658 29.658">
  <path id="Path_1" data-name="Path 1" d="M29.658,14.829A14.829,14.829,0,1,0,12.512,29.478V19.115H8.747V14.829h3.765V11.562c0-3.716,2.214-5.769,5.6-5.769a22.8,22.8,0,0,1,3.319.29V9.731h-1.87a2.143,2.143,0,0,0-2.417,2.316v2.782h4.113L20.6,19.115H17.146V29.478A14.832,14.832,0,0,0,29.658,14.829Z" fill="#407dc0"/>
  <path id="Path_2" data-name="Path 2" d="M313.854,213.323l.657-4.286H310.4v-2.782a2.143,2.143,0,0,1,2.417-2.316h1.87V200.29a22.8,22.8,0,0,0-3.319-.29c-3.387,0-5.6,2.053-5.6,5.769v3.267H302v4.286h3.765v10.362a14.986,14.986,0,0,0,4.634,0V213.323Z" transform="translate(-293.253 -194.207)" fill="#fff"/>
</svg>
