<svg xmlns="http://www.w3.org/2000/svg" width="29.658" height="29.658" viewBox="0 0 29.658 29.658">
  <g id="ic_whatsapp" transform="translate(0)">
    <path id="Path_44" data-name="Path 44" d="M14.833,0h-.007a14.82,14.82,0,0,0-12,23.52L.975,29.029l5.7-1.822A14.826,14.826,0,1,0,14.833,0Z" transform="translate(0)" fill="#4caf50"/>
    <path id="Path_45" data-name="Path 45" d="M20.6,17.817a4.184,4.184,0,0,1-2.91,2.093c-.775.165-1.787.3-5.194-1.116-4.358-1.805-7.164-6.234-7.383-6.521A8.469,8.469,0,0,1,3.352,7.8,4.734,4.734,0,0,1,4.868,4.191a2.154,2.154,0,0,1,1.516-.532c.184,0,.348.009.5.017.436.019.654.044.942.732.358.862,1.229,2.99,1.333,3.209a.883.883,0,0,1,.063.8,2.563,2.563,0,0,1-.48.68c-.219.252-.426.445-.645.715-.2.235-.426.487-.174.923a13.162,13.162,0,0,0,2.406,2.99A10.9,10.9,0,0,0,13.8,15.872a.938.938,0,0,0,1.045-.165,17.942,17.942,0,0,0,1.159-1.535.828.828,0,0,1,1.064-.323c.4.139,2.519,1.186,2.955,1.4s.723.323.829.506A3.693,3.693,0,0,1,20.6,17.817Z" transform="translate(2.861 3.123)" fill="#fafafa"/>
  </g>
</svg>
