<svg xmlns="http://www.w3.org/2000/svg" width="160" height="160" viewBox="0 0 160 160">
  <g id="icon-manage" transform="translate(-195 -1339)">
    <rect id="Rectangle_28" data-name="Rectangle 28" width="160" height="160" rx="80" transform="translate(195 1339)" fill="none"/>
    <g id="headache_migraine_severe_head_pain_shock_icon_145606" transform="translate(243 1387)">
      <path id="Path_215" data-name="Path 215" d="M44,16V15H16.211a6.4,6.4,0,0,1-1.128-.1A17.937,17.937,0,0,0,14,21v8a18,18,0,0,0,36,0V22a6,6,0,0,1-6-6" fill="#f2daae"/>
      <path id="Path_216" data-name="Path 216" d="M12,30h2V22H12a4,4,0,0,0,0,8" fill="#e0c494"/>
      <path id="Path_217" data-name="Path 217" d="M52,22H50v8h2a4,4,0,0,0,0-8" fill="#e0c494"/>
      <path id="Path_218" data-name="Path 218" d="M18,5a2.994,2.994,0,0,1-2.8-1.941,6,6,0,0,0-5.14,6.813A6.138,6.138,0,0,0,16.211,15H44v1a6,6,0,0,0,6,6V21A16,16,0,0,0,34,5Z" fill="#4f5559"/>
      <path id="Path_219" data-name="Path 219" d="M27,40a5,5,0,0,1,10,0Z" fill="#d36767"/>
      <path id="Path_220" data-name="Path 220" d="M38,3H49L47,8h3L42,19V9H39Z" fill="#d36767"/>
      <path id="Path_221" data-name="Path 221" d="M32,47a17.889,17.889,0,0,1-8-1.893V51l8,5,8-5V45.107A17.889,17.889,0,0,1,32,47" fill="#e0c494"/>
      <path id="Path_222" data-name="Path 222" d="M3,61V57a6,6,0,0,1,6-6H24l8,5,8-5H55a6,6,0,0,1,6,6v4Z" fill="#62c4c3"/>
      <path id="Path_223" data-name="Path 223" d="M29,26a1,1,0,0,0-.553-.9l-6-3-.894,1.79L25.764,26l-4.211,2.1.894,1.79,6-3A1,1,0,0,0,29,26" fill="#3a4249"/>
      <path id="Path_224" data-name="Path 224" d="M35.553,26.9l6,3,.9-1.789L38.237,26l4.211-2.1-.9-1.789-6,3a1,1,0,0,0,0,1.789" fill="#3a4249"/>
      <path id="Path_225" data-name="Path 225" d="M55,50H41V45.829A19.032,19.032,0,0,0,50.9,31H52a5,5,0,0,0,0-10H51a16.87,16.87,0,0,0-2.629-9.06l2.438-3.352A1,1,0,0,0,50,7H48.477l1.452-3.628A1,1,0,0,0,49,2H38a1,1,0,0,0-.986,1.165l.191,1.149A16.929,16.929,0,0,0,34,4H18a2.012,2.012,0,0,1-1.865-1.3,1.006,1.006,0,0,0-1.068-.636,7,7,0,0,0-6,7.941,7.014,7.014,0,0,0,4.777,5.6A18.815,18.815,0,0,0,13.005,21H12a5,5,0,0,0,0,10h1.1A19.032,19.032,0,0,0,23,45.829V50H9a7.008,7.008,0,0,0-7,7v4a1,1,0,0,0,1,1H61a1,1,0,0,0,1-1V57a7.008,7.008,0,0,0-7-7M52,23a3,3,0,0,1,0,6H51V23Zm-3-2.1a4.962,4.962,0,0,1-3.955-4.386l2.05-2.819A14.9,14.9,0,0,1,49,20.9M47.523,4,46.071,7.628A1,1,0,0,0,47,9h1.036L43,15.925V9a1,1,0,0,0-1-1H39.847l-.666-4ZM11.05,9.731a5.006,5.006,0,0,1,3.611-5.543A4.02,4.02,0,0,0,18,6H34a14.938,14.938,0,0,1,3.56.438l.454,2.727A1,1,0,0,0,39,10h2v4H16.21a5.131,5.131,0,0,1-5.16-4.269M9,26a3,3,0,0,1,3-3h1v6H12a3,3,0,0,1-3-3m6,3.1v-8a16.891,16.891,0,0,1,.821-5.12c.13.007.258.018.389.018H41v3a1,1,0,0,0,1.809.588l.707-.972A6.965,6.965,0,0,0,49,22.921V29.1a17,17,0,0,1-34,0m17,19a18.884,18.884,0,0,0,7-1.353v3.7l-7,4.376-7-4.376v-3.7A18.884,18.884,0,0,0,32,48.1M60,60H4V57a5.006,5.006,0,0,1,5-5H23.713l7.757,4.848a1,1,0,0,0,1.06,0L40.287,52H55a5.006,5.006,0,0,1,5,5Z" fill="#3a4249"/>
      <path id="Path_226" data-name="Path 226" d="M38,40a6,6,0,0,0-12,0,1,1,0,0,0,1,1H37a1,1,0,0,0,1-1m-9.873-1a4,4,0,0,1,7.746,0Z" fill="#3a4249"/>
    </g>
  </g>
</svg>
