<svg xmlns="http://www.w3.org/2000/svg" width="160" height="160" viewBox="0 0 160 160">
  <g id="icon9" transform="translate(-4432 -2286)">
    <rect id="Rectangle_30" data-name="Rectangle 30" width="160" height="160" rx="80" transform="translate(4432 2286)" fill="none"/>
    <g id="investment_1_" data-name="investment (1)" transform="translate(4474.76 2320.067)">
      <path id="Path_144" data-name="Path 144" d="M71.949,67.988a3.936,3.936,0,0,1-1.136,2.753,3.879,3.879,0,0,1-2.753,1.136H32.226a1.954,1.954,0,0,1-1.951-1.951,1.986,1.986,0,0,0-.575-1.377,1.962,1.962,0,0,0-1.377-.575h-8.1a1.954,1.954,0,0,1-1.951-1.951V61.639a1.954,1.954,0,0,0-1.951-1.951H13.286A3.885,3.885,0,0,1,9.4,55.8a3.936,3.936,0,0,1,1.136-2.753,3.879,3.879,0,0,1,2.753-1.136H23.15A1.954,1.954,0,0,0,25.1,49.957V43.822H8.876A3.639,3.639,0,0,1,5.24,40.187,3.572,3.572,0,0,1,6.309,37.62a3.651,3.651,0,0,1,2.566-1.069h16.24V31.632a1.954,1.954,0,0,0-1.951-1.951H12.712a3.885,3.885,0,0,1-3.889-3.889,3.936,3.936,0,0,1,1.136-2.753A3.879,3.879,0,0,1,12.712,21.9H36.129a1.954,1.954,0,0,0,1.951-1.951v-.989a1.954,1.954,0,0,1,1.951-1.951H72.3A3.885,3.885,0,0,1,76.186,20.9a3.936,3.936,0,0,1-1.136,2.753A3.879,3.879,0,0,1,72.3,24.789H59.947a3.288,3.288,0,0,0,0,6.576h7.5a3.885,3.885,0,0,1,3.889,3.889A3.936,3.936,0,0,1,70.2,38.008a3.879,3.879,0,0,1-2.753,1.136H60.294a3.639,3.639,0,0,0-3.636,3.636V60.4a3.639,3.639,0,0,0,3.636,3.636H68.06A3.977,3.977,0,0,1,71.949,67.988Z" transform="translate(0 3.055)" fill="#fce0d2"/>
      <path id="Path_145" data-name="Path 145" d="M76.84,31.663l.214,1.216a.269.269,0,0,1-.388.281l-1.1-.575a.255.255,0,0,0-.241,0l-1.1.588a.27.27,0,0,1-.388-.281l.214-1.216a.245.245,0,0,0-.08-.227L73.1,30.58a.268.268,0,0,1,.147-.454l1.23-.174a.28.28,0,0,0,.2-.147l.548-1.109a.257.257,0,0,1,.468,0l.548,1.109a.257.257,0,0,0,.2.147l1.23.174a.266.266,0,0,1,.147.454l-.882.869A.2.2,0,0,0,76.84,31.663Zm-6.9,26.371a.869.869,0,1,1-.869-.869A.867.867,0,0,1,69.943,58.034ZM13.632,13.673A1.043,1.043,0,1,1,12.59,12.63,1.035,1.035,0,0,1,13.632,13.673ZM11.975,70.718a1.043,1.043,0,1,1-1.043-1.043A1.035,1.035,0,0,1,11.975,70.718Z" transform="translate(1.565 1.581)" fill="#fce0d2"/>
      <line id="Line_2" data-name="Line 2" x2="1.898" y2="1.898" transform="translate(55.068 8.384)" fill="#eecdb8"/>
      <path id="Path_146" data-name="Path 146" d="M44.532,10.709a.446.446,0,0,1-.307-.12L42.313,8.678a.435.435,0,0,1,.615-.615l1.911,1.911a.428.428,0,0,1,0,.615A.423.423,0,0,1,44.532,10.709Z" transform="translate(12.435 0)" fill="#ecbe9c"/>
      <line id="Line_3" data-name="Line 3" x1="1.898" y2="1.898" transform="translate(55.068 8.384)" fill="#eecdb8"/>
      <path id="Path_147" data-name="Path 147" d="M42.63,10.709a.446.446,0,0,1-.307-.12.428.428,0,0,1,0-.615l1.911-1.911a.435.435,0,0,1,.615.615l-1.911,1.911A.471.471,0,0,1,42.63,10.709Z" transform="translate(12.438 0)" fill="#ecbe9c"/>
      <path id="Path_148" data-name="Path 148" d="M36.744,40.051h0a8.744,8.744,0,0,1,2.032-7.766,8.761,8.761,0,0,1,7.685-2.312h0C47.557,36.389,43.2,40.893,36.744,40.051ZM22.67,29.786h0c-.642,3.128.053,5.747,1.7,7.472S28.6,39.8,31.745,39.3h0C33.042,33.061,28.965,28.8,22.67,29.786Z" transform="translate(5.787 7.308)" fill="#fff"/>
      <path id="Path_149" data-name="Path 149" d="M46.634,31.884a9.156,9.156,0,0,1-.053,1.056q-.04-.441-.12-.882v-.013h-.013a8.766,8.766,0,0,0-7.685,2.326,8.019,8.019,0,0,0-2.152,4.812,8.518,8.518,0,0,1,2.152-6.9,8.8,8.8,0,0,1,7.685-2.312h.013A10.48,10.48,0,0,1,46.634,31.884Zm-14.7,6.242c-.481-4.4-4.13-7.071-9.263-6.255a8.67,8.67,0,0,0-.174,1.136,9.911,9.911,0,0,1,.174-3.221C28.564,28.863,32.507,32.539,31.932,38.126Z" transform="translate(5.787 7.308)" fill="#294157" opacity="0.1"/>
      <path id="Path_150" data-name="Path 150" d="M38.512,42.946a14.16,14.16,0,0,1-1.657-.107h0a.88.88,0,0,1-.748-.708,9.612,9.612,0,0,1,2.272-8.514,9.617,9.617,0,0,1,8.421-2.58.879.879,0,0,1,.748.748,9.58,9.58,0,0,1-2.272,8.474A9.154,9.154,0,0,1,38.512,42.946Zm-.8-1.751a7.232,7.232,0,0,0,8.207-8.514A7.232,7.232,0,0,0,37.71,41.2ZM30.2,42.251a8.386,8.386,0,0,1-6.229-2.459c-1.925-2-2.606-4.932-1.925-8.247a.852.852,0,0,1,.722-.682c3.328-.521,6.215.294,8.14,2.3s2.606,4.932,1.925,8.233a.837.837,0,0,1-.722.682A10.7,10.7,0,0,1,30.2,42.251Zm-6.576-9.757a7.038,7.038,0,0,0,1.591,6.095,7.081,7.081,0,0,0,6.028,1.871,7.083,7.083,0,0,0-1.591-6.108A7.116,7.116,0,0,0,23.622,32.494Zm-.735-.775ZM34.462,49.188a.867.867,0,0,1-.869-.869V24.769a.869.869,0,1,1,1.738,0V48.32A.885.885,0,0,1,34.462,49.188Z" transform="translate(5.57 5.375)" fill="#241c70"/>
      <rect id="Rectangle_31" data-name="Rectangle 31" width="24.166" height="3.983" transform="translate(28.096 53.761)" fill="#faa857"/>
      <path id="Path_151" data-name="Path 151" d="M46.506,42.22v1.631H24.238V46.2h-1.9V42.22Z" transform="translate(5.756 11.541)" fill="#fff" opacity="0.33"/>
      <path id="Path_152" data-name="Path 152" d="M46.724,47.291H22.559a.867.867,0,0,1-.869-.869V42.439a.867.867,0,0,1,.869-.869H46.724a.867.867,0,0,1,.869.869v3.983A.885.885,0,0,1,46.724,47.291Zm-23.3-1.738H45.869V43.294H23.428Z" transform="translate(5.537 11.322)" fill="#241c70"/>
      <path id="Path_153" data-name="Path 153" d="M41.794,61.52,44.28,45.2H23.67l2.486,16.32Z" transform="translate(6.203 12.544)" fill="#faa857"/>
      <path id="Path_154" data-name="Path 154" d="M43.919,47.552H26.891L29.016,61.52h-2.86L23.67,45.2H44.28Z" transform="translate(6.203 12.544)" fill="#fff" opacity="0.33"/>
      <path id="Path_155" data-name="Path 155" d="M42.012,62.607H26.374a.863.863,0,0,1-.855-.735l-2.486-16.32a.876.876,0,0,1,.855-1H44.5a.83.83,0,0,1,.655.307.866.866,0,0,1,.2.7l-2.486,16.32A.875.875,0,0,1,42.012,62.607Zm-14.89-1.724H41.277l2.232-14.6H24.89Z" transform="translate(5.985 12.325)" fill="#241c70"/>
      <path id="Path_156" data-name="Path 156" d="M58.791,65.224H15.339a.869.869,0,1,1,0-1.738H58.791a.869.869,0,0,1,0,1.738ZM36.911,41.379a.879.879,0,0,1-.575-.214.853.853,0,0,1-.08-1.216l2.513-2.874a.862.862,0,0,1,1.3,1.136l-2.513,2.874A.849.849,0,0,1,36.911,41.379Z" transform="translate(3.107 9.709)" fill="#241c70"/>
      <path id="Path_157" data-name="Path 157" d="M32.1,40.534a.893.893,0,0,1-.628-.267l-2.459-2.58a.86.86,0,0,1,1.243-1.19l2.459,2.58a.851.851,0,0,1-.027,1.216A.829.829,0,0,1,32.1,40.534Z" transform="translate(7.92 9.524)" fill="#241c70"/>
      <circle id="Ellipse_10" data-name="Ellipse 10" cx="8.755" cy="8.755" r="8.755" transform="translate(31.277 18.822)" fill="#faa857"/>
      <path id="Path_158" data-name="Path 158" d="M41.909,22.5a8.75,8.75,0,0,0-15.972,4.945,8.545,8.545,0,0,0,.321,2.352,8.651,8.651,0,0,1-1.537-4.959A8.753,8.753,0,0,1,41.909,22.5Z" transform="translate(6.557 2.742)" fill="#fff" opacity="0.4"/>
      <path id="Path_159" data-name="Path 159" d="M33.693,34.677a9.623,9.623,0,1,1,9.623-9.623A9.635,9.635,0,0,1,33.693,34.677Zm0-17.523a7.893,7.893,0,1,0,7.9,7.9A7.895,7.895,0,0,0,33.693,17.154Z" transform="translate(6.338 2.524)" fill="#241c70"/>
      <path id="Path_160" data-name="Path 160" d="M31.91,24.389a2.54,2.54,0,1,1,2.54-2.54.642.642,0,0,1-.642.642.65.65,0,0,1-.642-.642,1.243,1.243,0,1,0-1.243,1.243.642.642,0,0,1,.642.642A.665.665,0,0,1,31.91,24.389Z" transform="translate(8.122 3.83)" fill="#241c70"/>
      <path id="Path_161" data-name="Path 161" d="M31.91,27.216a2.538,2.538,0,0,1-2.54-2.54.642.642,0,1,1,1.283,0A1.243,1.243,0,1,0,31.9,23.433a.642.642,0,0,1,0-1.283,2.533,2.533,0,1,1,.013,5.066Z" transform="translate(8.122 4.786)" fill="#241c70"/>
      <path id="Path_162" data-name="Path 162" d="M31.432,29.49a.642.642,0,0,1-.642-.642V27.793a.642.642,0,0,1,.642-.642.65.65,0,0,1,.642.642v1.056A.642.642,0,0,1,31.432,29.49Zm0-8.621a.642.642,0,0,1-.642-.642V19.172a.642.642,0,0,1,.642-.642.65.65,0,0,1,.642.642v1.056A.642.642,0,0,1,31.432,20.869ZM55.958,29.49a.867.867,0,0,1-.869-.869V21.684a.869.869,0,0,1,1.738,0v6.937A.885.885,0,0,1,55.958,29.49Zm0,4.651a.867.867,0,0,1-.869-.869v-1.55a.869.869,0,0,1,1.738,0v1.55A.885.885,0,0,1,55.958,34.141Z" transform="translate(8.6 3.567)" fill="#241c70"/>
      <path id="Path_163" data-name="Path 163" d="M53.549,24.54a.849.849,0,0,1-.615-.254L50.97,22.321l-1.965,1.965a.86.86,0,0,1-1.216-1.216L50.355,20.5a.863.863,0,0,1,1.216,0l2.593,2.566a.863.863,0,0,1,0,1.216A.849.849,0,0,1,53.549,24.54ZM46.439,43.8a.867.867,0,0,1-.869-.869V35.994a.869.869,0,0,1,1.738,0v6.937A.876.876,0,0,1,46.439,43.8Zm0,5.146a.867.867,0,0,1-.869-.869V46.019a.869.869,0,0,1,1.738,0v2.058A.876.876,0,0,1,46.439,48.946Z" transform="translate(13.575 4.147)" fill="#241c70"/>
      <path id="Path_164" data-name="Path 164" d="M60.261,39.659a.849.849,0,0,1-.615-.254L57.681,37.44l-1.965,1.965A.86.86,0,0,1,54.5,38.189l2.566-2.566a.881.881,0,0,1,.615-.254h0a.881.881,0,0,1,.615.254l2.566,2.566a.863.863,0,0,1,0,1.216A.8.8,0,0,1,60.261,39.659ZM13,29.006a.867.867,0,0,1-.869-.869v-7.7a.869.869,0,1,1,1.738,0v7.7A.867.867,0,0,1,13,29.006Zm0,5.012a.867.867,0,0,1-.869-.869V31.586a.869.869,0,1,1,1.738,0V33.15A.867.867,0,0,1,13,34.019Z" transform="translate(2.319 3.917)" fill="#241c70"/>
      <path id="Path_165" data-name="Path 165" d="M10.868,24.16a.849.849,0,0,1-.615-.254.863.863,0,0,1,0-1.216L13.1,19.843a.863.863,0,0,1,1.216,0l2.86,2.847a.86.86,0,0,1-1.216,1.216l-2.245-2.245-2.245,2.245A.874.874,0,0,1,10.868,24.16Zm7.9,21.372a.867.867,0,0,1-.869-.869V36.978a.869.869,0,1,1,1.738,0v7.7A.873.873,0,0,1,18.767,45.532Zm0,5.266a.867.867,0,0,1-.869-.869V48.112a.869.869,0,1,1,1.738,0V49.93A.876.876,0,0,1,18.767,50.8Z" transform="translate(1.603 3.925)" fill="#241c70"/>
      <path id="Path_166" data-name="Path 166" d="M20.345,36.53a.849.849,0,0,1-.615-.254l-2.245-2.245-2.245,2.245a.86.86,0,0,1-1.216-1.216l2.847-2.847a.863.863,0,0,1,1.216,0l2.847,2.847a.863.863,0,0,1,0,1.216A.8.8,0,0,1,20.345,36.53Z" transform="translate(2.872 8.088)" fill="#241c70"/>
    </g>
  </g>
</svg>
