<svg xmlns="http://www.w3.org/2000/svg" width="160" height="160" viewBox="0 0 160 160">
  <g id="icon-money" transform="translate(-3748 -3550)">
    <g id="Group_46" data-name="Group 46" transform="translate(3553 2211)">
      <rect id="Rectangle_28" data-name="Rectangle 28" width="160" height="160" rx="80" transform="translate(195 1339)" fill="none"/>
    </g>
    <path id="Path_350" data-name="Path 350" d="M224.264,153.419l.52.029,1,.152.3.076.508-1.984-.344-.088-.048-.02h-.052l-1.116-.172h-.1l-.56-.029Zm3.568.836.772.372.828.5.02.02h0l.036.025.228-.376.96-1.284-.044-.037-.04-.029-.044-.025-.928-.564-.04-.029-.048-.02-.816-.4Zm3.384,1.836-.284.26.024.029.016.02.028.029.6.656h.008l.536.716,1.64-1.228-.544-.724-.028-.041-.036-.037-.724-.8-.036-.037-.036-.033-.044-.043Zm1.832,3.32.1.22.344.936.152.584,1.984-.508-.16-.62-.012-.049-.016-.047-.38-1.036-.016-.045-.024-.047-.132-.276Zm.88,3.556.036.712,2.048-.1-.036-.716Z" transform="translate(3608.09 3465.068)" fill="#576d7e"/>
    <path id="Path_351" data-name="Path 351" d="M224,149.361v2.048a14.338,14.338,0,0,1,14.323,14.931l2.044.084A16.382,16.382,0,0,0,224,149.361Z" transform="translate(3607.814 3462.951)" fill="#4bbfeb"/>
    <path id="Path_352" data-name="Path 352" d="M224.418,149.429l1.012.047.92.139.312-2.024-.956-.147h-.1l-1.08-.055Zm3.836.58.74.188h.02l1.092.4.7-1.924-1.112-.4-.048-.02-.048-.02-.836-.216Zm3.632,1.376.48.232.024.02,1.184.724,1.064-1.748-1.272-.772-.04-.029-.044-.02-.508-.244Zm3.268,2.108.1.068.02.02,1.336,1.212,1.38-1.516-1.36-1.232-.036-.037-.04-.029-.168-.127Zm2.692,2.679,1.008,1.348.136.228,1.752-1.064-.172-.28-.024-.043-.032-.037-1.028-1.38Zm2.116,3.259.58,1.2.212.58,1.924-.7-.228-.62-.016-.047-.024-.045-.6-1.252Zm1.388,3.628.268,1.044.132.86,2.024-.312-.14-.912-.008-.051-.012-.051-.28-1.084Zm.6,3.836.044.92-.016.356,2.048.1.02-.412-1.024-.047,1.024-.051-.052-.972Z" transform="translate(3608.252 3460.884)" fill="#576d7e"/>
    <path id="Path_353" data-name="Path 353" d="M211,144.262V172.1h2.048V144.262Zm6.144,0V172.28h2.048V144.262Z" transform="translate(3594.191 3457.608)" fill="#34485c"/>
    <path id="Path_354" data-name="Path 354" d="M212.22,143.357a3.2,3.2,0,0,0-3.22,3.152v25.506h2.048V146.509a1.117,1.117,0,0,1,1.172-1.1h26.326a1.117,1.117,0,0,1,1.172,1.1v25.506h2.048V146.509a3.2,3.2,0,0,0-3.22-3.152Z" transform="translate(3592.095 3456.66)" fill="#34485c"/>
    <path id="Path_355" data-name="Path 355" d="M223.823,148.695l-.676.6a3.067,3.067,0,0,1-4.056,0l-.676-.6-.676.6a5.115,5.115,0,0,0-1.74,3.832v0a5.12,5.12,0,1,0,8.5-3.84l-.676-.6Zm-.476,2.568a3.023,3.023,0,0,1,.844,1.868,3.084,3.084,0,1,1-5.3-1.864,3.363,3.363,0,0,0,4.452,0Z" transform="translate(3599.43 3462.253)" fill="rgba(37,179,157,0.98)"/>
    <path id="Path_356" data-name="Path 356" d="M222,159.553V165.7h2.048v-6.144Zm0-8.191v6.144h2.048v-6.144Z" transform="translate(3605.718 3465.047)" fill="rgba(252,184,78,0.99)"/>
    <path id="Path_357" data-name="Path 357" d="M217,155.361v5.12h2.048v-3.072H221.1v3.072h2.048v-5.12Z" transform="translate(3600.479 3469.237)" fill="#cad1d8"/>
    <path id="Path_358" data-name="Path 358" d="M216,150.481a5.12,5.12,0,1,0,5.12-5.12A5.135,5.135,0,0,0,216,150.481Zm2.048,0a3.072,3.072,0,1,1,3.072,3.072A3.056,3.056,0,0,1,218.048,150.481Z" transform="translate(3599.431 3458.76)" fill="#f05542"/>
    <path id="Path_359" data-name="Path 359" d="M215.144,159.361v1.024a5.1,5.1,0,0,1-5.12,5.12H209v16.383h1.024a5.1,5.1,0,0,1,5.12,5.12v1.024H260.2v-1.024a5.1,5.1,0,0,1,5.12-5.12h1.024V165.5h-1.024a5.1,5.1,0,0,1-5.12-5.12v-1.024Zm1.84,2.048h41.373a7.014,7.014,0,0,0,5.936,5.936v12.7a7.016,7.016,0,0,0-5.936,5.936H216.983a7.016,7.016,0,0,0-5.936-5.936v-12.7A7.014,7.014,0,0,0,216.983,161.409Z" transform="translate(3592.096 3473.428)" fill="#60c5b8"/>
    <path id="Path_360" data-name="Path 360" d="M214.048,165.361a2.048,2.048,0,1,0,2.048,2.048A2.064,2.064,0,0,0,214.048,165.361Zm40.957,0a2.048,2.048,0,1,0,2.048,2.048A2.064,2.064,0,0,0,255.005,165.361Z" transform="translate(3595.239 3479.714)" fill="#34485c"/>
    <path id="Path_361" data-name="Path 361" d="M220.5,162.371v2.048h2.1c2.473,0,3.392,1.511,3.392,3.056s-.919,3.052-3.392,3.052h-2.1v2.048h2.1a5.112,5.112,0,1,0,0-10.2Z" transform="translate(3604.15 3476.582)" fill="#34485c" fill-rule="evenodd"/>
    <path id="Path_362" data-name="Path 362" d="M220.551,166.459v2.048h10.176v-2.048Zm0-4.1v2.048h10.176v-2.048Zm1.393,8.165-1.44,1.46,6.852,6.756,1.44-1.456Z" transform="translate(3604.15 3476.573)" fill="#34485c" fill-rule="evenodd"/>
    <path id="Path_363" data-name="Path 363" d="M208.024,157.361A1.024,1.024,0,0,0,207,158.385V193.2a1.024,1.024,0,0,0,1.024,1.024h63.484a1.024,1.024,0,0,0,1.024-1.024V158.385a1.024,1.024,0,0,0-1.024-1.024Zm1.024,2.048h61.436v32.766H209.048Z" transform="translate(3590 3471.333)" fill="#25b39e"/>
  </g>
</svg>
