<svg xmlns="http://www.w3.org/2000/svg" width="160" height="160" viewBox="0 0 160 160">
  <g id="icon-handup" transform="translate(-3973 -3550)">
    <g id="Group_47" data-name="Group 47" transform="translate(3778 2211)">
      <rect id="Rectangle_28" data-name="Rectangle 28" width="160" height="160" rx="80" transform="translate(195 1339)" fill="none"/>
    </g>
    <path id="Path_344" data-name="Path 344" d="M56.079,35.682a52.568,52.568,0,0,1-3,21.242,2.235,2.235,0,0,1-2.095,1.4H26.737a2.207,2.207,0,0,1-2.095-1.4,52.093,52.093,0,0,1-3-21.242A2.221,2.221,0,0,0,19.4,33.336H16.989a2.249,2.249,0,0,1-1.871-3.547A80.737,80.737,0,0,1,37.672,8.448a2.207,2.207,0,0,1,2.374,0A80.681,80.681,0,0,1,62.6,29.788a2.235,2.235,0,0,1-1.816,3.547H58.3a2.207,2.207,0,0,0-2.221,2.346Z" transform="translate(4014.734 3591.898)" fill="#a0d468"/>
    <path id="Path_345" data-name="Path 345" d="M29.221,58.319H26.763a2.207,2.207,0,0,1-2.095-1.4,52.093,52.093,0,0,1-3-21.242,2.221,2.221,0,0,0-2.235-2.346H17.015a2.249,2.249,0,0,1-1.885-3.6A80.737,80.737,0,0,1,37.7,8.391a2.039,2.039,0,0,1,.531-.251C32.349,17.539,25.925,33.949,29.221,58.319Z" transform="translate(4014.722 3591.913)" fill="#8bc052"/>
    <path id="Path_346" data-name="Path 346" d="M23.193,58.772l-3.631,3.045a2.793,2.793,0,0,1-3.938-.349L5.735,49.583a2.793,2.793,0,0,1,.349-3.938l3.631-3.031a2.793,2.793,0,0,1,3.924.349l9.9,11.8a2.793,2.793,0,0,1-.349,4.008Z" transform="translate(4010.918 3605.329)" fill="#a0d468"/>
    <path id="Path_347" data-name="Path 347" d="M73.171,49.137a4.567,4.567,0,0,1-2.947,4.288L62.487,56.4a69.243,69.243,0,0,1-25.348,4.623l-14.608-.1L11.26,47.475l10.614-9.329A14.733,14.733,0,0,1,23.341,37a15.362,15.362,0,0,1,5.265-2.276L46.175,30.8a2.193,2.193,0,0,1,2.207,2.193v4.078c0,1.215-.559,1.4-2.207,2.193l-10.041,4.19,5.586,2.542a24.343,24.343,0,0,0,12.709,2.081h0a24.818,24.818,0,0,0,4.19-.838l8.687-2.528a4.595,4.595,0,0,1,5.866,4.4Z" transform="translate(4013.368 3600.9)" fill="#fcae30"/>
    <path id="Path_348" data-name="Path 348" d="M20.771,55.872l-3.617,3.045a2.793,2.793,0,0,1-3.715-.112l-.223-.237-2.025-2.43A8.645,8.645,0,0,0,18.3,49.545l.6-.265,2.221,2.654a2.793,2.793,0,0,1-.349,3.938Z" transform="translate(4013.34 3608.229)" fill="#8bc052"/>
    <path id="Path_349" data-name="Path 349" d="M70.9,45.225a4.567,4.567,0,0,1-2.947,4.288L60.23,52.487A68.95,68.95,0,0,1,34.938,57.11l-14.58-.1-1.4-1.718L16.74,52.641h0l1.006-.419c19.231,1.718,32.122-3.547,40.138-9.287l7.192-2.095a4.595,4.595,0,0,1,5.852,4.4Z" transform="translate(4015.541 3604.812)" fill="#ffc03d"/>
  </g>
</svg>
