<svg xmlns="http://www.w3.org/2000/svg" width="160" height="160" viewBox="0 0 160 160">
  <g id="icon7" transform="translate(-185 -1339)">
    <rect id="Rectangle_28" data-name="Rectangle 28" width="160" height="160" rx="80" transform="translate(185 1339)" fill="none"/>
    <g id="child_1_" data-name="child (1)" transform="translate(239 1386.995)">
      <path id="Path_128" data-name="Path 128" d="M23.75,29.77l-6.41,3.6-6.38-3.61a3.678,3.678,0,0,0,.63-.53c.01-.01.02-.02.02-.03a5.356,5.356,0,0,0,1.07-3.33l9.32.02V26a5.466,5.466,0,0,0,1.07,3.22l.04.04A2.992,2.992,0,0,0,23.75,29.77Z" fill="#f0d299"/>
      <path id="Path_129" data-name="Path 129" d="M14.49,27.23a8.1,8.1,0,0,1-1.81-1.34v-.01L22,25.9v.01a8.139,8.139,0,0,1-1.79,1.32A6.04,6.04,0,0,1,14.49,27.23Z" fill="#f0d299"/>
      <path id="Path_130" data-name="Path 130" d="M34.69,45.7H0c.08-1.35.21-7.65.42-8.69.9-4.52,9.32-6.64,9.32-6.64a5.064,5.064,0,0,0,1.21-.62l6.38,3.61,6.41-3.6a5.915,5.915,0,0,0,1.18.61s8.42,2.11,9.33,6.64C34.46,38.06,34.6,44.36,34.69,45.7Z" fill="#7ca2c1"/>
      <path id="Path_131" data-name="Path 131" d="M28.65,38.69a.512.512,0,0,0-.51.51v6.52h1.01V39.2A.5.5,0,0,0,28.65,38.69Zm-22.62,0a.512.512,0,0,0-.51.51v6.52H6.53V39.2A.492.492,0,0,0,6.03,38.69Z" fill="#658faa"/>
      <path id="Path_132" data-name="Path 132" d="M22.1,26.89a8.313,8.313,0,0,1-1.52,1.04,6.791,6.791,0,0,1-6.47,0,8.934,8.934,0,0,1-1.53-1.04c.05-.33.08-.66.1-1a8.1,8.1,0,0,0,1.81,1.34,6.04,6.04,0,0,0,5.72,0A8.139,8.139,0,0,0,22,25.91v.1A8.777,8.777,0,0,0,22.1,26.89Z" fill="#e9c991"/>
      <path id="Path_133" data-name="Path 133" d="M26.92,18.52c-.74,3.26-2.1,2.46-2.1,2.46A11.167,11.167,0,0,1,22,25.9v.01a8.139,8.139,0,0,1-1.79,1.32,6.04,6.04,0,0,1-5.72,0,8.1,8.1,0,0,1-1.81-1.34v-.01a11.259,11.259,0,0,1-2.81-4.9s-1.36.8-2.1-2.46C7,15.13,9.15,15.81,9.15,15.81c-.09-.78-.18-1.66-.22-2.55.89-.22,2.33-1.52,3.57-3.04a42.712,42.712,0,0,1,5.28.92c2.08.49,4.54,2.59,8,1.76-.03,1.01-.14,2.01-.24,2.91C25.54,15.81,27.68,15.13,26.92,18.52Z" fill="#ffe4aa"/>
      <path id="Path_134" data-name="Path 134" d="M53.11,45.16H46.4c-6.22,0-10.89,3.71-10.89,10.65V59.1H64V55.81C64,48.87,59.33,45.16,53.11,45.16Z" fill="#8fcbbb"/>
      <path id="Path_135" data-name="Path 135" d="M46.41,45.16h6.7c0,2-1.5,3-3.35,3S46.41,47.16,46.41,45.16Z" fill="#8fcbbb"/>
      <path id="Path_136" data-name="Path 136" d="M53.91,45.18c-.01,2.26-1.68,3.78-4.16,3.78s-4.13-1.52-4.14-3.78c.26-.01.52-.02.79-.02h.01c0,2,1.5,3,3.35,3s3.35-1,3.35-3C53.38,45.16,53.65,45.17,53.91,45.18Z" fill="#66b09c"/>
      <path id="Path_137" data-name="Path 137" d="M53.11,42.59v2.57c0,2-1.5,3-3.35,3s-3.35-1-3.35-3V42.6Z" fill="#f0d299"/>
      <path id="Path_138" data-name="Path 138" d="M53.11,42.59v.48a5.083,5.083,0,0,1-6.7.02V42.6Z" fill="#f0d299"/>
      <path id="Path_139" data-name="Path 139" d="M59.21,35.09c1.72-5.78-1.79-10.72-5.23-9.84-7.81-5.35-15.57,3.06-13.42,10.07a8.088,8.088,0,0,1-1.83,8.24,11.222,11.222,0,0,0,6.98-1.13H53.8a13.513,13.513,0,0,0,6.63,1.61S57.55,40.69,59.21,35.09Z" fill="#d3d3d3"/>
      <path id="Path_140" data-name="Path 140" d="M53.11,43.07v.99a5.757,5.757,0,0,1-6.7.01v-.98a5.083,5.083,0,0,0,6.7-.02Z" fill="#e9c991"/>
      <path id="Path_141" data-name="Path 141" d="M56.2,35.69a9.558,9.558,0,0,1-3.09,7.38,5.083,5.083,0,0,1-6.7.02,9.559,9.559,0,0,1-3.1-7.4,8.321,8.321,0,0,1,.07-1.22c3.09-3.37,7.42.24,10.67-5.23A10.147,10.147,0,0,1,56.2,35.69Z" fill="#ffe4aa"/>
      <g id="Group_54" data-name="Group 54">
        <path id="Path_142" data-name="Path 142" d="M59.1,53.22a.491.491,0,0,0-.49.49V59.1h.99V53.71A.506.506,0,0,0,59.1,53.22Zm-18.69,0a.491.491,0,0,0-.49.49V59.1h.99V53.71A.506.506,0,0,0,40.41,53.22Z" fill="#66b09c"/>
      </g>
      <g id="Group_55" data-name="Group 55">
        <path id="Path_143" data-name="Path 143" d="M25.77,12.9a17.746,17.746,0,0,1-8.33.17,10.876,10.876,0,0,1-4.63-2.15,7.353,7.353,0,0,1-3.89,2.34c-.16-3.42.54-7.18,6.25-8.17a13.17,13.17,0,0,1,4.34,0C25.03,6.04,25.88,9.58,25.77,12.9Z" fill="#355471"/>
      </g>
    </g>
  </g>
</svg>
