<svg xmlns="http://www.w3.org/2000/svg" width="160" height="160" viewBox="0 0 160 160">
  <g id="icon-home" transform="translate(-4182 -2690)">
    <rect id="Rectangle_72" data-name="Rectangle 72" width="160" height="160" rx="80" transform="translate(4182 2690)" fill="none"/>
    <path id="Path_197" data-name="Path 197" d="M63,42h-3.55v-2.53a.971.971,0,0,0-.97-.97h-8.55V25.659a2.79,2.79,0,0,0,2.79-1.02l.18-.23a2.928,2.928,0,0,0-.44-4.09l-5.54-4.44V4.677a.962.962,0,0,0-.97-.96h-9.77a.969.969,0,0,0-.97.96V6.488L27.394.217a.95.95,0,0,0-1.21,0L1.1,20.318a2.936,2.936,0,0,0-.43,4.11l.17.2a2.894,2.894,0,0,0,1.96,1.08c.1.01.21.01.311.01a2.961,2.961,0,0,0,.52-.04V52.639a.971.971,0,0,0,.97.97H18.384v5.93a.971.971,0,0,0,.97.97H22.9v2.52a.965.965,0,0,0,.97.97H63a.965.965,0,0,0,.97-.97V42.969A.966.966,0,0,0,63,42Zm-5.49-1.56V45l-5.18-4.56Zm0,7.14v3.85l-8.12,7.14H28.442l-8.11-7.14v-3.85l8.11-7.14H49.393Zm0,6.441v4.55h-5.18ZM20.322,45v-4.56h5.19ZM37.153,5.647h7.831v8.681L37.153,8.047ZM3.7,23.578a1.015,1.015,0,0,1-.7.2,1,1,0,0,1-.66-.38l-.17-.2a.968.968,0,0,1,.15-1.36l24.46-19.63L51.243,21.829a.97.97,0,0,1,.15,1.36l-.18.23a1.017,1.017,0,0,1-.65.36.967.967,0,0,1-.71-.21L27.393,5.558a.95.95,0,0,0-1.21,0Zm14.68,15.891v12.2H5.572v-27.1L26.782,7.557,47.993,24.568V38.5H19.352A.979.979,0,0,0,18.382,39.469Zm1.94,19.1v-4.56l5.19,4.56ZM62.034,62.06H24.842V60.51H58.484a.965.965,0,0,0,.97-.97v-15.6h2.58V62.06Z" transform="translate(4229.999 2738.001)" fill="#2b2f64"/>
    <path id="Path_198" data-name="Path 198" d="M25.513,40.439,20.322,45v-4.56Z" transform="translate(4229.999 2738.001)" fill="#54bfa0"/>
    <path id="Path_199" data-name="Path 199" d="M25.513,58.569H20.322v-4.56Z" transform="translate(4229.999 2738.001)" fill="#54bfa0"/>
    <path id="Path_200" data-name="Path 200" d="M62.034,43.939V62.06H24.842V60.51H58.484a.965.965,0,0,0,.97-.97v-15.6Z" transform="translate(4229.999 2738.001)" fill="#3ca580"/>
    <path id="Path_201" data-name="Path 201" d="M57.514,54.02v4.549H52.333Z" transform="translate(4229.999 2738.001)" fill="#54bfa0"/>
    <path id="Path_202" data-name="Path 202" d="M57.514,40.439V45l-5.181-4.56Z" transform="translate(4229.999 2738.001)" fill="#54bfa0"/>
    <path id="Path_203" data-name="Path 203" d="M49.394,40.439H28.442l-8.11,7.14v3.85l8.11,7.14H49.393l8.12-7.14v-3.85Zm-10.471,14.4a5.33,5.33,0,1,1,5.33-5.33A5.335,5.335,0,0,1,38.923,54.839Z" transform="translate(4229.999 2738.001)" fill="#fedc7d"/>
    <path id="Path_204" data-name="Path 204" d="M44.983,5.647v8.681l-7.83-6.281v-2.4Z" transform="translate(4229.999 2738.001)" fill="#f5cd95"/>
    <path id="Path_205" data-name="Path 205" d="M51.394,23.188l-.18.23a1.017,1.017,0,0,1-.65.36.967.967,0,0,1-.71-.21L27.393,5.558a.95.95,0,0,0-1.21,0L3.7,23.578a1.015,1.015,0,0,1-.7.2,1,1,0,0,1-.66-.38l-.17-.2a.968.968,0,0,1,.15-1.36l24.46-19.63L51.243,21.829A.968.968,0,0,1,51.394,23.188Z" transform="translate(4229.999 2738.001)" fill="#eaeaea"/>
    <path id="Path_206" data-name="Path 206" d="M26.782,7.558,5.572,24.568v27.1H18.383v-12.2a.977.977,0,0,1,.97-.97H47.994V24.569Zm0,22.39a6.491,6.491,0,1,1,6.491-6.49A6.5,6.5,0,0,1,26.782,29.948Z" transform="translate(4229.999 2738.001)" fill="#f5cd95"/>
    <path id="Path_207" data-name="Path 207" d="M26.782,16.968a6.49,6.49,0,1,0,6.491,6.491A6.5,6.5,0,0,0,26.782,16.968ZM25.813,27.9a4.563,4.563,0,0,1-3.47-3.47h3.47Zm0-5.41h-3.47a4.563,4.563,0,0,1,3.47-3.47Zm1.939,5.41v-3.47h3.47A4.56,4.56,0,0,1,27.752,27.9Zm0-5.41v-3.47a4.563,4.563,0,0,1,3.47,3.47Z" transform="translate(4229.999 2738.001)" fill="#2b2f64"/>
    <path id="Path_208" data-name="Path 208" d="M31.223,24.428a4.563,4.563,0,0,1-3.47,3.47v-3.47Z" transform="translate(4229.999 2738.001)" fill="#bbe1f4"/>
    <path id="Path_209" data-name="Path 209" d="M31.223,22.488h-3.47v-3.47A4.564,4.564,0,0,1,31.223,22.488Z" transform="translate(4229.999 2738.001)" fill="#cbeafb"/>
    <path id="Path_210" data-name="Path 210" d="M25.813,19.018v3.47h-3.47A4.561,4.561,0,0,1,25.813,19.018Z" transform="translate(4229.999 2738.001)" fill="#bbe1f4"/>
    <path id="Path_211" data-name="Path 211" d="M25.813,24.428V27.9a4.563,4.563,0,0,1-3.47-3.47Z" transform="translate(4229.999 2738.001)" fill="#cbeafb"/>
    <path id="Path_212" data-name="Path 212" d="M38.923,44.179a5.33,5.33,0,1,0,5.33,5.33A5.335,5.335,0,0,0,38.923,44.179Zm0,8.72a3.39,3.39,0,1,1,3.39-3.39A3.393,3.393,0,0,1,38.923,52.9Z" transform="translate(4229.999 2738.001)" fill="#2b2f64"/>
    <path id="Path_213" data-name="Path 213" d="M38.923,46.119a3.39,3.39,0,1,0,3.39,3.39A3.393,3.393,0,0,0,38.923,46.119Zm1.32,4.71a1.08,1.08,0,0,1-.28.39,1.464,1.464,0,0,1-.44.26,2.133,2.133,0,0,1-.58.12l-.07.71c0,.01-.01.03-.01.04a.046.046,0,0,1-.05.03.339.339,0,0,1-.08.03h-.14a.862.862,0,0,1-.17-.01.3.3,0,0,1-.1-.02c-.021-.02-.04-.03-.04-.05a.148.148,0,0,1-.01-.07l.07-.66c-.09-.02-.18-.03-.27-.05s-.15-.05-.22-.07a1.585,1.585,0,0,1-.18-.08.522.522,0,0,1-.11-.08.226.226,0,0,1-.05-.11,1.1,1.1,0,0,1-.02-.22.972.972,0,0,1,.01-.18.268.268,0,0,1,.02-.11.092.092,0,0,1,.04-.06.127.127,0,0,1,.06-.01.277.277,0,0,1,.12.05c.06.03.13.07.21.11a1.885,1.885,0,0,0,.31.1,1.412,1.412,0,0,0,.43.05.887.887,0,0,0,.57-.14.435.435,0,0,0,.19-.38.446.446,0,0,0-.08-.26.666.666,0,0,0-.22-.18,2.082,2.082,0,0,0-.3-.13c-.11-.04-.23-.09-.35-.13s-.23-.1-.34-.16a1.78,1.78,0,0,1-.31-.23.933.933,0,0,1-.21-.33,1.262,1.262,0,0,1-.08-.46,1.246,1.246,0,0,1,.08-.45.952.952,0,0,1,.24-.35,1.143,1.143,0,0,1,.38-.25,1.908,1.908,0,0,1,.51-.12l.06-.66a.076.076,0,0,1,.02-.05.138.138,0,0,1,.04-.03.188.188,0,0,1,.08-.02.576.576,0,0,1,.14-.01.812.812,0,0,1,.17.01.405.405,0,0,1,.1.03.082.082,0,0,1,.05.05.127.127,0,0,1,.01.06l-.07.62a1.416,1.416,0,0,1,.2.04,1.055,1.055,0,0,1,.19.05c.06.02.11.05.16.07a.289.289,0,0,1,.1.06.209.209,0,0,1,.04.06.117.117,0,0,1,.02.07c.01.02.01.06.02.09v.14a.759.759,0,0,1-.01.16.251.251,0,0,1-.01.1.107.107,0,0,1-.03.05.06.06,0,0,1-.04.01.3.3,0,0,1-.13-.04,1.293,1.293,0,0,0-.2-.09,1.071,1.071,0,0,0-.27-.09,1.286,1.286,0,0,0-.35-.05.847.847,0,0,0-.29.04.528.528,0,0,0-.2.09.381.381,0,0,0-.11.14.484.484,0,0,0-.03.18.385.385,0,0,0,.08.26.666.666,0,0,0,.22.18,2.087,2.087,0,0,0,.3.14c.12.04.24.08.36.13a2.717,2.717,0,0,1,.35.16,1.288,1.288,0,0,1,.3.22,1.016,1.016,0,0,1,.22.32,1.082,1.082,0,0,1,.08.46A1.255,1.255,0,0,1,40.243,50.829Z" transform="translate(4229.999 2738.001)" fill="#e0e1e0"/>
    <path id="Path_214" data-name="Path 214" d="M40.343,50.319a1.255,1.255,0,0,1-.1.51,1.08,1.08,0,0,1-.28.39,1.464,1.464,0,0,1-.44.26,2.133,2.133,0,0,1-.58.12l-.07.71c0,.01-.01.03-.01.04a.046.046,0,0,1-.05.03.339.339,0,0,1-.08.03h-.14a.862.862,0,0,1-.17-.01.3.3,0,0,1-.1-.02c-.021-.02-.04-.03-.04-.05a.148.148,0,0,1-.01-.07l.07-.66c-.09-.02-.18-.03-.27-.05s-.15-.05-.22-.07a1.585,1.585,0,0,1-.18-.08.522.522,0,0,1-.11-.08.226.226,0,0,1-.05-.11,1.1,1.1,0,0,1-.02-.22.972.972,0,0,1,.01-.18.268.268,0,0,1,.02-.11.092.092,0,0,1,.04-.06.127.127,0,0,1,.06-.01.277.277,0,0,1,.12.05c.06.03.13.07.21.11a1.885,1.885,0,0,0,.31.1,1.412,1.412,0,0,0,.43.05.887.887,0,0,0,.57-.14.435.435,0,0,0,.19-.38.446.446,0,0,0-.08-.26.666.666,0,0,0-.22-.18,2.082,2.082,0,0,0-.3-.13c-.11-.04-.23-.09-.35-.13s-.23-.1-.34-.16a1.78,1.78,0,0,1-.31-.23.933.933,0,0,1-.21-.33,1.262,1.262,0,0,1-.08-.46,1.246,1.246,0,0,1,.08-.45.952.952,0,0,1,.24-.35,1.143,1.143,0,0,1,.38-.25,1.908,1.908,0,0,1,.51-.12l.06-.66a.076.076,0,0,1,.02-.05.138.138,0,0,1,.04-.03.188.188,0,0,1,.08-.02.576.576,0,0,1,.14-.01.812.812,0,0,1,.17.01.405.405,0,0,1,.1.03.082.082,0,0,1,.05.05.127.127,0,0,1,.01.06l-.07.62a1.416,1.416,0,0,1,.2.04,1.055,1.055,0,0,1,.19.05c.06.02.11.05.16.07a.289.289,0,0,1,.1.06.209.209,0,0,1,.04.06.117.117,0,0,1,.02.07c.01.02.01.06.02.09v.14a.759.759,0,0,1-.01.16.251.251,0,0,1-.01.1.107.107,0,0,1-.03.05.06.06,0,0,1-.04.01.3.3,0,0,1-.13-.04,1.293,1.293,0,0,0-.2-.09,1.071,1.071,0,0,0-.27-.09,1.286,1.286,0,0,0-.35-.05.847.847,0,0,0-.29.04.528.528,0,0,0-.2.09.381.381,0,0,0-.11.14.484.484,0,0,0-.03.18.385.385,0,0,0,.08.26.666.666,0,0,0,.22.18,2.087,2.087,0,0,0,.3.14c.12.04.24.08.36.13a2.717,2.717,0,0,1,.35.16,1.288,1.288,0,0,1,.3.22,1.016,1.016,0,0,1,.22.32A1.082,1.082,0,0,1,40.343,50.319Z" transform="translate(4229.999 2738.001)" fill="#2b2f64"/>
  </g>
</svg>
