<svg xmlns="http://www.w3.org/2000/svg" width="160" height="160" viewBox="0 0 160 160">
  <g id="icon5" transform="translate(-4205 -2042)">
    <g id="Group_32" data-name="Group 32" transform="translate(4020 703)">
      <rect id="Rectangle_28" data-name="Rectangle 28" width="160" height="160" rx="80" transform="translate(185 1339)" fill="none"/>
    </g>
    <g id="mutual" transform="translate(4240.976 2083.525)">
      <path id="Path_83" data-name="Path 83" d="M20.925,82.135H32.482a.925.925,0,1,0,0-1.849H20.925a.925.925,0,1,0,0,1.849Zm42.069-1.849H51.437a.925.925,0,1,0,0,1.849H62.994a.925.925,0,1,0,0-1.849Zm0-7.4H51.437a.925.925,0,1,0,0,1.849H62.994a.925.925,0,1,0,0-1.849Zm0-7.4H51.437a.925.925,0,0,0,0,1.849H62.994a.925.925,0,0,0,0-1.849Zm0-7.4H51.437a.925.925,0,0,0,0,1.849H62.994a.925.925,0,0,0,0-1.849ZM47.738,83.984H36.181a.925.925,0,1,0,0,1.849H47.738a.925.925,0,0,0,0-1.849Zm0-7.4H36.181a.925.925,0,1,0,0,1.849H47.738a.925.925,0,1,0,0-1.849Zm0-7.4H36.181a.925.925,0,1,0,0,1.849H47.738a.925.925,0,1,0,0-1.849ZM78.25,83.984H66.693a.925.925,0,0,0,0,1.849H78.25a.925.925,0,0,0,0-1.849Zm0-7.4H66.693a.925.925,0,0,0,0,1.849H78.25a.925.925,0,1,0,0-1.849Zm0-7.4H66.693a.925.925,0,0,0,0,1.849H78.25a.925.925,0,1,0,0-1.849Zm0-7.4H66.693a.925.925,0,0,0,0,1.849H78.25a.925.925,0,0,0,0-1.849Zm0-7.4H66.693a.925.925,0,0,0,0,1.849H78.25a.925.925,0,1,0,0-1.849ZM65.768,47.925a.925.925,0,0,0,.925.925H78.25a.925.925,0,1,0,0-1.849H66.693a.925.925,0,0,0-.925.925Z" transform="translate(-10.754 -24.196)" fill="#2d4356"/>
      <path id="Path_84" data-name="Path 84" d="M23.321,54.24a.925.925,0,0,0,.925-.925,11.5,11.5,0,0,1,3.713-7.64c2.516-2.226,6.013-3.08,10.4-2.542a.925.925,0,0,0,1.038-.9c0-.055.156-5.568,4.008-8.637,2.524-2.012,6.109-2.553,10.652-1.609a.925.925,0,0,0,1.112-.941c0-.058-.181-5.847,3.648-9.47,2.268-2.145,5.513-3.119,9.65-2.9l-1.139.511a.925.925,0,1,0,.757,1.687l3.7-1.66a.925.925,0,0,0,.245-1.527l-3.25-2.963a.925.925,0,0,0-1.246,1.367l.8.729c-4.553-.194-8.178.949-10.786,3.415-3.368,3.186-4.063,7.659-4.2,9.742-4.607-.756-8.335-.025-11.1,2.175-3.494,2.785-4.394,7.106-4.625,9.049-4.491-.367-8.152.669-10.889,3.091A13.331,13.331,0,0,0,22.4,53.316a.925.925,0,0,0,.925.925ZM82.034,8.01A1.387,1.387,0,1,0,80.647,9.4,1.387,1.387,0,0,0,82.034,8.01Zm-2.08,0a.693.693,0,1,1,.693.693A.693.693,0,0,1,79.953,8.01ZM33.492,24.653a1.387,1.387,0,1,0-1.387-1.387A1.387,1.387,0,0,0,33.492,24.653Zm0-2.08a.693.693,0,1,1-.693.693A.693.693,0,0,1,33.492,22.572ZM24.708,37.6a1.387,1.387,0,1,0-1.387-1.387A1.387,1.387,0,0,0,24.708,37.6Zm0-2.08a.693.693,0,1,1-.693.693A.693.693,0,0,1,24.708,35.517ZM41.351,3.849a.925.925,0,1,0-.925-.925.925.925,0,0,0,.925.925Zm0-1.387a.462.462,0,1,1-.462.462A.462.462,0,0,1,41.351,2.462ZM54.3,21.879a.925.925,0,1,0-.925-.925.925.925,0,0,0,.925.925Zm0-1.387a.462.462,0,1,1-.462.462.462.462,0,0,1,.462-.462ZM15.925,15.407A.925.925,0,1,0,15,14.482a.925.925,0,0,0,.925.925Zm0-1.387a.462.462,0,1,1-.462.462A.462.462,0,0,1,15.925,14.02Z" transform="translate(-8.065)" fill="#2d4356"/>
      <circle id="Ellipse_7" data-name="Ellipse 7" cx="1" cy="1" r="1" transform="translate(0 63)" fill="#2d4356"/>
      <path id="Path_85" data-name="Path 85" d="M8.312,135H6.925a.925.925,0,0,0,0,1.849H8.312a.925.925,0,0,0,0-1.849Zm68.883,0H75.808a.925.925,0,0,0,0,1.849h1.387a.925.925,0,1,0,0-1.849Z" transform="translate(-3.226 -71.514)" fill="#2d4356"/>
      <circle id="Ellipse_8" data-name="Ellipse 8" cx="1" cy="1" r="1" transform="translate(76 63)" fill="#2d4356"/>
      <path id="Path_86" data-name="Path 86" d="M77.744,134.991H16.054a.932.932,0,1,0,0,1.849H77.744a.932.932,0,1,0,0-1.849Z" transform="translate(-8.066 -71.505)" fill="#2d4356"/>
      <path id="Path_87" data-name="Path 87" d="M33.407,89.21a.925.925,0,0,0-.925-.925H20.925a.925.925,0,0,0,0,1.849H32.482a.925.925,0,0,0,.925-.925Zm18.03.925H62.994a.925.925,0,0,0,0-1.849H51.437a.925.925,0,0,0,0,1.849Zm0-7.4H62.994a.925.925,0,1,0,0-1.849H51.437a.925.925,0,1,0,0,1.849Zm0-7.4H62.994a.925.925,0,1,0,0-1.849H51.437a.925.925,0,1,0,0,1.849Zm0-7.4H62.994a.925.925,0,0,0,0-1.849H51.437a.925.925,0,0,0,0,1.849ZM36.181,86.436H47.738a.925.925,0,1,0,0-1.849H36.181a.925.925,0,1,0,0,1.849Zm0-7.4H47.738a.925.925,0,1,0,0-1.849H36.181a.925.925,0,1,0,0,1.849ZM78.25,84.587H66.693a.925.925,0,0,0,0,1.849H78.25a.925.925,0,1,0,0-1.849Zm0-7.4H66.693a.925.925,0,0,0,0,1.849H78.25a.925.925,0,1,0,0-1.849Zm0-7.4H66.693a.925.925,0,0,0,0,1.849H78.25a.925.925,0,0,0,0-1.849Zm0-7.4H66.693a.925.925,0,0,0,0,1.849H78.25a.925.925,0,0,0,0-1.849Zm0-7.4H66.693a.925.925,0,0,0,0,1.849H78.25a.925.925,0,1,0,0-1.849Z" transform="translate(-10.754 -28.498)" fill="#0bceb2"/>
      <path id="Path_88" data-name="Path 88" d="M10.867,68.674l.687-.9-.434-.246-.441,1.012h-.015l-.448-1.006-.441.253.68.883v.014l-1.063-.137v.492l1.071-.137v.014l-.687.882.412.261.471-1.02h.014l.434,1.012.456-.26-.694-.868v-.014l1.092.13v-.492l-1.092.144Z" transform="translate(-5.05 -35.232)" fill="#0bceb2"/>
      <path id="Path_89" data-name="Path 89" d="M74.06,24.137l-.4.508.238.15.271-.587h.008l.25.583.263-.15-.4-.5v-.008l.629.075v-.283l-.629.083V24l.4-.521-.25-.141-.254.583h-.008l-.258-.579-.255.146.392.508V24l-.613-.079v.283l.617-.079Z" transform="translate(-39.49 -11.473)" fill="#0bceb2"/>
      <path id="Path_90" data-name="Path 90" d="M154.071,46.989v-.482L153,46.648v-.014l.674-.887-.426-.241-.433.993H152.8l-.44-.986-.433.249.667.865v.014l-1.043-.135v.482l1.05-.135v.014l-.674.865.4.256.461-1h.014l.426.993.447-.255L153,46.875v-.014Z" transform="translate(-81.489 -23.393)" fill="#0bceb2"/>
      <path id="Path_91" data-name="Path 91" d="M116.648,19.656l-.582.747.349.221.4-.863h.012l.368.857.386-.22-.588-.735V19.65l.924.11v-.416l-.924.122v-.012l.582-.765-.367-.208-.374.857h-.012l-.38-.851-.374.215.576.747v.012l-.9-.116v.416l.906-.116Z" transform="translate(-62.234 -8.862)" fill="#0bceb2"/>
      <path id="Path_92" data-name="Path 92" d="M80.432,144H76.592a.928.928,0,0,0,0,1.849h3.841a.928.928,0,0,0,0-1.849Zm-27.738,0H48.853a.928.928,0,0,0,0,1.849h3.841a.928.928,0,0,0,0-1.849Zm21.195,0H55.4a.925.925,0,0,0,0,1.849h7.369v.925H59.1a.925.925,0,0,0,0,1.849H70.653a.925.925,0,1,0,0-1.849H66.52v-.925h7.369a.925.925,0,0,0,0-1.849Z" transform="translate(-25.809 -76.353)" fill="#0bceb2"/>
    </g>
  </g>
</svg>
