<svg xmlns="http://www.w3.org/2000/svg" width="160" height="160" viewBox="0 0 160 160">
  <g id="icon1" transform="translate(-5103 -2042)">
    <g id="Group_36" data-name="Group 36" transform="translate(4918 703)">
      <rect id="Rectangle_28" data-name="Rectangle 28" width="160" height="160" rx="80" transform="translate(185 1339)" fill="none"/>
    </g>
    <g id="funds-raising" transform="translate(5149.365 2084.306)">
      <path id="Path_46" data-name="Path 46" d="M141.316,184.941c0,7.2-9.519,13.041-21.249,13.041s-21.234-5.838-21.234-13.041,9.5-34.474,21.234-34.474S141.316,177.737,141.316,184.941Z" transform="translate(-83.773 -128.376)" fill="#47aacb"/>
      <path id="Path_47" data-name="Path 47" d="M168.22,186.98c0,7.21-9.516,13.046-21.254,13.046-6.974,0-13.164-2.071-17.027-5.257a30.9,30.9,0,0,0,12.167,2.36c11.737,0,21.254-5.836,21.254-13.046,0-5.676-5.912-23.829-14.173-31.253C159.884,155.909,168.22,180.242,168.22,186.98Z" transform="translate(-110.676 -130.419)" fill="#90cddf"/>
      <path id="Path_48" data-name="Path 48" d="M212.554,77.537c-.588,5.779-4.159,9.857-8.047,9.857s-7.459-4.078-8.047-9.857A16.585,16.585,0,0,0,212.554,77.537Z" transform="translate(-168.205 -65.303)" fill="#47aacb"/>
      <path id="Path_49" data-name="Path 49" d="M204.546,291.793a9.53,9.53,0,1,1-9.535-9.526A9.529,9.529,0,0,1,204.546,291.793Z" transform="translate(-158.714 -242.363)" fill="#feffff"/>
      <path id="Path_50" data-name="Path 50" d="M223.976,139.918h0a1.652,1.652,0,0,1-1.652,1.652h-8.559a1.652,1.652,0,0,1-1.652-1.652h0a1.652,1.652,0,0,1,1.652-1.652h8.559A1.652,1.652,0,0,1,223.976,139.918Z" transform="translate(-181.743 -117.824)" fill="#90cddf"/>
      <path id="Path_51" data-name="Path 51" d="M14.23,42.021V17.674H9.915l7.311-7.812,7.312,7.811H20.223v17.69" transform="translate(-6.873 -6.775)" fill="#dbdbdb"/>
      <path id="Path_52" data-name="Path 52" d="M398.205,42.021V17.674H393.89L401.2,9.863l7.312,7.811H404.2v17.69" transform="translate(-338.952 -6.775)" fill="#dbdbdb"/>
      <path id="Path_53" data-name="Path 53" d="M119.805,81.937a2.677,2.677,0,0,0-.555-3.477,14.219,14.219,0,0,0,3.073-7.689,1.073,1.073,0,0,0-1.561-1.061,15.451,15.451,0,0,1-15.107,0,1.073,1.073,0,0,0-1.561,1.061,14.22,14.22,0,0,0,3.073,7.689,2.677,2.677,0,0,0-.555,3.477c-9.347,7.024-15.718,26.97-15.718,33.056,0,7.783,10.007,14.114,22.307,14.114s22.323-6.331,22.323-14.114C135.523,108.909,129.154,88.968,119.805,81.937ZM108.929,81.1a.579.579,0,1,1,0-1.159h8.559a.579.579,0,1,1,0,1.159Zm10.932-8.618a10.763,10.763,0,0,1-2.887,5.313h-7.53a10.764,10.764,0,0,1-2.887-5.313A17.268,17.268,0,0,0,119.861,72.483Zm-6.66,54.478c-11.117,0-20.161-5.369-20.161-11.968,0-6.544,6.873-26.052,15.455-31.79a10.528,10.528,0,0,0,1.72.044,3.144,3.144,0,0,0-.188,1.036v1.57a1.073,1.073,0,1,0,2.146,0v-1.57a1.036,1.036,0,1,1,2.072,0v3.5a1.073,1.073,0,1,0,2.146,0v-3.5a3.141,3.141,0,0,0-.188-1.036,10.39,10.39,0,0,0,1.625-.034c8.5,5.777,15.55,25.427,15.55,31.781C133.378,121.593,124.326,126.961,113.2,126.961Z" transform="translate(-76.907 -58.428)" fill="#3a3d3f"/>
      <path id="Path_54" data-name="Path 54" d="M177.548,284.927a10.6,10.6,0,1,0,10.6-10.6A10.61,10.61,0,0,0,177.548,284.927Zm19.06,0a8.457,8.457,0,1,1-8.462-8.453A8.467,8.467,0,0,1,196.608,284.927Z" transform="translate(-151.85 -235.497)" fill="#3a3d3f"/>
      <path id="Path_55" data-name="Path 55" d="M35.231,44.949v.263a2.726,2.726,0,0,0,.929,5.291h.282a.586.586,0,1,1,0,1.172H34.5a1.073,1.073,0,0,0,0,2.146h.73v.089a1.073,1.073,0,0,0,2.146,0v-.264a2.726,2.726,0,0,0-.935-5.289h-.282a.587.587,0,0,1,0-1.173H38.1a1.073,1.073,0,0,0,0-2.146h-.725v-.089a1.073,1.073,0,1,0-2.146,0ZM14.424,28.589V11.972h3.242a1.074,1.074,0,0,0,.783-1.806L11.136,2.355a1.105,1.105,0,0,0-1.566,0L2.259,10.166a1.074,1.074,0,0,0,.783,1.806H6.284V35.246a1.073,1.073,0,0,0,2.146,0V10.9A1.073,1.073,0,0,0,7.357,9.827H5.516l4.837-5.17,4.838,5.168H13.35A1.073,1.073,0,0,0,12.278,10.9v17.69a1.073,1.073,0,1,0,2.146,0Zm55.92-18.423L63.032,2.355a1.105,1.105,0,0,0-1.566,0l-7.311,7.812a1.074,1.074,0,0,0,.783,1.806H58.18V35.246a1.073,1.073,0,1,0,2.146,0V10.9a1.073,1.073,0,0,0-1.073-1.073H57.412l4.837-5.17,4.838,5.168H65.246A1.073,1.073,0,0,0,64.173,10.9v17.69a1.073,1.073,0,1,0,2.146,0V11.972h3.242A1.074,1.074,0,0,0,70.344,10.165Z" fill="#3a3d3f"/>
    </g>
  </g>
</svg>
