<svg xmlns="http://www.w3.org/2000/svg" width="160" height="160" viewBox="0 0 160 160">
  <g id="icon6" transform="translate(-5103 -2286)">
    <g id="Group_37" data-name="Group 37" transform="translate(4918 947)">
      <rect id="Rectangle_28" data-name="Rectangle 28" width="160" height="160" rx="80" transform="translate(185 1339)" fill="none"/>
      <g id="insurance" transform="translate(231.337 1385.05)">
        <path id="Path_93" data-name="Path 93" d="M41.83,47.51C41.83,33.424,54.438,22,69.991,22S98.154,33.419,98.154,47.51a19.167,19.167,0,0,0-6.6-2.272,19.537,19.537,0,0,0-10.508,1.4,45.189,45.189,0,0,0-21.873-.113,20.326,20.326,0,0,0-10.738-1.287A19.919,19.919,0,0,0,41.83,47.51Z" transform="translate(-36.33 -19.15)" fill="#fddd5a"/>
        <path id="Path_94" data-name="Path 94" d="M267.116,45.813a19.342,19.342,0,0,1,4.009,1.7c0-14.086-12.608-25.51-28.163-25.51q-.994,0-1.972.064C255,22.951,266.193,33.112,267.116,45.813Z" transform="translate(-209.301 -19.15)" fill="#fed030"/>
        <path id="Path_95" data-name="Path 95" d="M173.7,46.586c1.044-14.523,6.491-24.494,10.822-24.516s9.928,9.957,11.052,24.629a45.189,45.189,0,0,0-21.873-.113Z" transform="translate(-150.859 -19.211)" fill="#fed030"/>
        <circle id="Ellipse_9" data-name="Ellipse 9" cx="2.98" cy="2.98" r="2.98" transform="translate(12.208 32.238)" fill="#57565c"/>
        <path id="Path_96" data-name="Path 96" d="M108.986,245.49a2.986,2.986,0,0,0-.986.167,2.981,2.981,0,0,1,0,5.625,2.98,2.98,0,1,0,.986-5.792Z" transform="translate(-93.799 -213.252)" fill="#3c3b41"/>
        <path id="Path_97" data-name="Path 97" d="M81.28,282.339a5.53,5.53,0,0,1-11.033,0q-.172-.726-.342-1.454A5.917,5.917,0,0,1,75.8,273.61h.195a5.917,5.917,0,0,1,5.628,7.282Z" transform="translate(-60.576 -237.673)" fill="#57565c"/>
        <path id="Path_98" data-name="Path 98" d="M108.855,273.632h-.195a6.045,6.045,0,0,0-1.031.067,5.917,5.917,0,0,1,4.886,7.213l-.342,1.446a5.79,5.79,0,0,1-4.584,5.044,5.23,5.23,0,0,0,.526.075,5.717,5.717,0,0,0,6.036-5.119l.342-1.446a5.917,5.917,0,0,0-5.639-7.28Z" transform="translate(-93.443 -237.692)" fill="#3c3b41"/>
        <path id="Path_99" data-name="Path 99" d="M35.9,393.829v6.7H7.5v-6.7a5.156,5.156,0,0,1,3.651-4.931l2.507-.765h0l1.272-.387,1.5-.455a2.575,2.575,0,0,0,1.825-2.464V383.65h6.838v1.157a2.577,2.577,0,0,0,1.825,2.464l2.761.843,2.572.789a5.156,5.156,0,0,1,3.653,4.931Z" transform="translate(-6.514 -333.245)" fill="#1cabe1"/>
        <path id="Path_100" data-name="Path 100" d="M78.749,388.114a10.518,10.518,0,0,1-7.873,2.982A10.369,10.369,0,0,1,64,387.745l1.5-.455a2.567,2.567,0,0,0,1.218-.8,2.452,2.452,0,0,0,.231-.323,2.56,2.56,0,0,0,.376-1.339V383.65h6.838v1.157a2.568,2.568,0,0,0,.493,1.519c.036.05.075.1.114.146a2.575,2.575,0,0,0,1.214.8Z" transform="translate(-55.585 -333.245)" fill="#fdd8ae"/>
        <path id="Path_101" data-name="Path 101" d="M94.045,386.317c-.92,1.467-2.2,2.69-3.746,2.7-1.688.007-3.047-1.3-3.969-2.859a2.56,2.56,0,0,0,.376-1.339V383.64h6.838V384.8A2.568,2.568,0,0,0,94.045,386.317Z" transform="translate(-74.978 -333.236)" fill="#fbbf7d"/>
        <path id="Path_102" data-name="Path 102" d="M86.489,319.533c-.442,2.216-2.395,6.218-5.189,6.228-2.994.012-4.948-4.1-5.281-6.455-.394-2.776,1.386-4.734,4.005-6.225a7.712,7.712,0,0,0,1.052,1.133,4.972,4.972,0,0,0,2.443,1.017c.757.118,1.709.131,2.182.732A4.341,4.341,0,0,1,86.489,319.533Z" transform="translate(-65.975 -271.954)" fill="#fdd8ae"/>
        <path id="Path_103" data-name="Path 103" d="M104.178,315.962c-.475-.6-1.424-.614-2.182-.732a4.972,4.972,0,0,1-2.443-1.016A8.173,8.173,0,0,1,98.5,313.08a13.808,13.808,0,0,0-1.261.807c.163.163.3.295.337.326a4.972,4.972,0,0,0,2.443,1.016c.757.118,1.709.131,2.182.732a4.319,4.319,0,0,1,.789,3.57c-.394,1.955-1.957,5.3-4.237,6.066a3.258,3.258,0,0,0,1.02.162c2.794-.009,4.747-4.012,5.189-6.228A4.321,4.321,0,0,0,104.178,315.962Z" transform="translate(-84.454 -271.954)" fill="#fbbf7d"/>
        <path id="Path_104" data-name="Path 104" d="M361.694,266.627H351.532l-.94-4.339c-.6-2.782,1.339-5.473,3.971-5.458h.063a12.106,12.106,0,0,1,2.675.423c.538.118,1.161.246,1.863.373a4.435,4.435,0,0,1,3.311,5.391Q362.083,264.827,361.694,266.627Z" transform="translate(-304.395 -223.101)" fill="#57565c"/>
        <path id="Path_105" data-name="Path 105" d="M380.579,257.647c-.7-.131-1.326-.255-1.863-.373a12.046,12.046,0,0,0-2.675-.423h-.062a3.825,3.825,0,0,0-.839.091c.492.076.977.195,1.6.333.538.118,1.161.246,1.863.373a4.435,4.435,0,0,1,3.311,5.391q-.395,1.8-.78,3.6h1.972q.395-1.8.78-3.6A4.44,4.44,0,0,0,380.579,257.647Z" transform="translate(-325.811 -223.118)" fill="#3c3b41"/>
        <path id="Path_106" data-name="Path 106" d="M316.9,362.4v6.7H288.5v-6.7a5.156,5.156,0,0,1,3.651-4.931l2.429-.742.078-.024h0l2.761-.842a2.561,2.561,0,0,0,1.216-.8h0a2.575,2.575,0,0,0,.608-1.662q.15-1.231.3-2.463a5.063,5.063,0,0,1,1.912-2.587c.526-.359,1.841-1.251,3.056-.723a3.155,3.155,0,0,1,1.508,3.391c.029.968.051,1.748.063,2.367a2.565,2.565,0,0,0,.611,1.666l.058.067a2.58,2.58,0,0,0,1.052.7l.1.034,2.761.843.147.045,2.425.739A5.156,5.156,0,0,1,316.9,362.4Z" transform="translate(-250.564 -301.815)" fill="#eb304a"/>
        <path id="Path_107" data-name="Path 107" d="M398.885,357.436l-2.425-.739-.147-.045-2.761-.843-.1-.034a2.58,2.58,0,0,1-1.052-.7l-.058-.067a2.565,2.565,0,0,1-.611-1.666c-.012-.615-.034-1.4-.063-2.367a3.167,3.167,0,0,0-1.508-3.391c-1.218-.526-2.525.363-3.055.722a3.675,3.675,0,0,1,.618,2.669c.029.968.051,1.748.063,2.367a2.565,2.565,0,0,0,.611,1.666l.058.067a2.58,2.58,0,0,0,1.052.7l.1.034,2.761.843.147.045,2.425.739a5.156,5.156,0,0,1,3.653,4.931v6.7h3.945v-6.7a5.156,5.156,0,0,0-3.652-4.931Z" transform="translate(-336.198 -301.783)" fill="#e4222e"/>
        <path id="Path_108" data-name="Path 108" d="M373.661,355.035l-4,3.951L365.6,355.05a2.575,2.575,0,0,0,.608-1.662c.021-.168.041-.335.062-.5.079-.657.16-1.306.241-1.959a5.063,5.063,0,0,1,1.912-2.587c.526-.359,1.841-1.251,3.056-.723a3.155,3.155,0,0,1,1.508,3.391c.022.742.041,1.373.054,1.9,0,.163.007.316.009.459A2.565,2.565,0,0,0,373.661,355.035Z" transform="translate(-317.525 -301.806)" fill="#fdd8ae"/>
        <path id="Path_109" data-name="Path 109" d="M377.461,352.95a3.856,3.856,0,0,1-6.771-.026c.079-.657.16-1.306.241-1.959a5.063,5.063,0,0,1,1.912-2.587c.526-.359,1.841-1.251,3.056-.723a3.155,3.155,0,0,1,1.508,3.391C377.429,351.783,377.448,352.414,377.461,352.95Z" transform="translate(-321.946 -301.841)" fill="#fbbf7d"/>
        <path id="Path_110" data-name="Path 110" d="M368.422,306.068c0,2.594-2.235,6.379-5,6.379s-5-3.784-5-6.379v-1.861a2.226,2.226,0,0,1,.583-1.982c.838-.7,1.972,0,3-.722s1.833-.955,2.881-.225c1.118.777,2.155.2,2.961.947a2.307,2.307,0,0,1,.583,1.982Z" transform="translate(-311.279 -261.318)" fill="#fdd8ae"/>
        <path id="Path_111" data-name="Path 111" d="M394.417,302.257c-.806-.75-1.841-.17-2.961-.947a1.97,1.97,0,0,0-2.243-.167,2.809,2.809,0,0,1,.271.167c1.118.777,2.155.2,2.961.947a2.306,2.306,0,0,1,.583,1.982V306.1c0,2.276-1.727,5.47-4.017,6.217a3.144,3.144,0,0,0,.986.162c2.761,0,5-3.784,5-6.379v-1.861A2.319,2.319,0,0,0,394.417,302.257Z" transform="translate(-337.857 -261.35)" fill="#fbbf7d"/>
        <path id="Path_112" data-name="Path 112" d="M342.772,407.646l-3.6,2.893a.921.921,0,0,1-1.27-.112l-3.164-3.6.078-.024h0l2.761-.842a2.562,2.562,0,0,0,1.216-.8Zm8.213-.814-3.257,3.6a.92.92,0,0,1-1.269.11l-3.6-2.893,4-2.5.058.067a2.58,2.58,0,0,0,1.052.7l.1.034,2.761.843Z" transform="translate(-290.723 -351.917)" fill="#c0232c"/>
        <path id="Path_113" data-name="Path 113" d="M225.055,315.664h-8.872l-.822-3.486a3.564,3.564,0,0,1,3.466-4.388h.054a11.411,11.411,0,0,1,2.335.341c.471.095,1.014.2,1.628.3a3.573,3.573,0,0,1,2.893,4.339Z" transform="translate(-186.958 -267.36)" fill="#57565c"/>
        <path id="Path_114" data-name="Path 114" d="M240.864,308.43c-.614-.1-1.157-.205-1.628-.3a11.4,11.4,0,0,0-2.335-.341h-.054a3.562,3.562,0,0,0-.836.095c.38.062.768.147,1.253.246s1.014.2,1.628.3a3.573,3.573,0,0,1,2.893,4.339l-.681,2.893h1.972l.681-2.893a3.573,3.573,0,0,0-2.893-4.339Z" transform="translate(-204.976 -267.359)" fill="#3c3b41"/>
        <path id="Path_115" data-name="Path 115" d="M163.3,433.937v6.7H154.18v-5.579a4.145,4.145,0,0,1,2.936-3.963l2.015-.615.931-.283,1.194-.364A5.153,5.153,0,0,1,163.3,433.937Z" transform="translate(-133.906 -373.352)" fill="#199ad5"/>
        <path id="Path_116" data-name="Path 116" d="M297.614,435.066v5.578H288.5v-6.7a5.156,5.156,0,0,1,2.038-4.1l1.959.6.116.035,2.067.63A4.145,4.145,0,0,1,297.614,435.066Z" transform="translate(-250.564 -373.361)" fill="#e4222e"/>
        <path id="Path_117" data-name="Path 117" d="M192.012,415.533v5.578H169.18v-5.579a4.145,4.145,0,0,1,2.936-3.963l2.015-.615.931-.283,1.29-.395a2.067,2.067,0,0,0,1.466-1.982v-.944h5.5v.93a2.072,2.072,0,0,0,1.467,1.982l2.1.642.116.036,2.067.63A4.145,4.145,0,0,1,192.012,415.533Z" transform="translate(-146.934 -353.828)" fill="#fecc30"/>
        <path id="Path_118" data-name="Path 118" d="M269.447,411.578l-2.067-.63-.116-.035-2.1-.642a2.072,2.072,0,0,1-1.467-1.982v-.93H261.72v.93a2.072,2.072,0,0,0,1.467,1.982l2.1.642.116.035,2.067.63a4.145,4.145,0,0,1,2.936,3.963v5.578h1.972v-5.578A4.145,4.145,0,0,0,269.447,411.578Z" transform="translate(-227.305 -353.837)" fill="#f8be32"/>
        <path id="Path_119" data-name="Path 119" d="M225.743,410.94a8.473,8.473,0,0,1-6.328,2.4,8.365,8.365,0,0,1-5.506-2.667l1.29-.395a2.069,2.069,0,0,0,1.466-1.982v-.944h5.5v.93a2.064,2.064,0,0,0,.068.526,2.007,2.007,0,0,0,.16.418,2.147,2.147,0,0,0,.263.394,2.079,2.079,0,0,0,.976.642l2.1.642Z" transform="translate(-185.782 -353.828)" fill="#fdd8ae"/>
        <path id="Path_120" data-name="Path 120" d="M234.87,408.391h5.5v.93a2.06,2.06,0,0,0,.229.945,1.636,1.636,0,0,0,.263.395,1.591,1.591,0,0,0,.973.459l1.623.246a2.045,2.045,0,0,0,.49-.417v-.035l-2.1-.642a2.079,2.079,0,0,1-.976-.642,2.146,2.146,0,0,1-.263-.395,2.06,2.06,0,0,1-.229-.945v-.93H234.87Z" transform="translate(-203.986 -353.837)" fill="#fbbf7d"/>
        <path id="Path_121" data-name="Path 121" d="M240.073,408.817a4.421,4.421,0,0,1-5.623-.035,2.053,2.053,0,0,0,.055-.477v-.944H240v.93A2.063,2.063,0,0,0,240.073,408.817Z" transform="translate(-203.621 -353.837)" fill="#fbbf7d"/>
        <path id="Path_122" data-name="Path 122" d="M231.112,348.959a4.426,4.426,0,1,1-8.852,0v-1.753a2.175,2.175,0,0,1,.515-1.867c.74-.664,1.746,0,2.652-.681s1.623-.9,2.55-.212c.988.732,1.907.185,2.619.893a2.27,2.27,0,0,1,.515,1.867Z" transform="translate(-193.024 -298.831)" fill="#fdd8ae"/>
        <path id="Path_123" data-name="Path 123" d="M253.4,345.357c-.713-.707-1.632-.16-2.619-.893a1.685,1.685,0,0,0-2.1-.091c.043.029.087.058.132.091.988.732,1.907.185,2.619.893a2.27,2.27,0,0,1,.515,1.867v1.753a4.426,4.426,0,0,1-3.439,4.314,4.425,4.425,0,0,0,5.412-4.314v-1.752A2.275,2.275,0,0,0,253.4,345.357Z" transform="translate(-215.827 -298.85)" fill="#fbbf7d"/>
        <path id="Path_124" data-name="Path 124" d="M62.975,54.7l-5.336-1.62a1.6,1.6,0,0,1-.752-.494,1.578,1.578,0,0,1-.33-.646,1.646,1.646,0,0,1-.046-.395c-.011-.526-.028-1.157-.054-2.029a8.7,8.7,0,0,0,1.671-4.765v-.689a.957.957,0,0,0,.131-.326l.706-3.261.074-.338a5.732,5.732,0,0,0-.815-4.38,5.013,5.013,0,0,0-3.287-2.2c-.613-.11-1.228-.234-1.829-.366l-.394-.088a11.062,11.062,0,0,0-2.481-.359h-.1a4.89,4.89,0,0,0-3.8,1.855,5.749,5.749,0,0,0-1.1,4.787l.92,4.239v1.111a8.714,8.714,0,0,0,1.775,4.9c-.075.6-.15,1.2-.224,1.808v.118a1.591,1.591,0,0,1-1.127,1.521l-2.736.834-.026.008-2.505.764a6.127,6.127,0,0,0-2.082,1.112l-1.08-.329a1.086,1.086,0,0,1-.771-1.039v-.388a5.391,5.391,0,0,0,1.709-3.937V48.446l.592-2.51.072-.309a4.56,4.56,0,0,0-3.688-5.539c-.433-.072-.864-.151-1.289-.234V27.082a44.223,44.223,0,0,1,8.965,1.172v1.617a.986.986,0,0,0,1.972,0V28.142a18.45,18.45,0,0,1,9.378-1.089,18.087,18.087,0,0,1,5.762,1.89v1.194a.986.986,0,0,0,1.972,0V28.357h0A25.158,25.158,0,0,0,54.254,9.591,30.4,30.4,0,0,0,34.661,1.883L34.653.928a.986.986,0,0,0-.986-.978h-.008a.986.986,0,0,0-.978.994l.008.939a30.407,30.407,0,0,0-19.6,7.706A25.169,25.169,0,0,0,4.512,28.36v1.782a.986.986,0,1,0,1.972,0V28.95a18.863,18.863,0,0,1,5.766-1.892,19.245,19.245,0,0,1,9.6.989v1.709a.986.986,0,1,0,1.972,0v-1.61a44.23,44.23,0,0,1,8.962-1.076V39.49a8.162,8.162,0,0,0-.864-.055h-.072a4.491,4.491,0,0,0-3.533,1.709,4.546,4.546,0,0,0-.874,3.894l.806,3.428v1.656A5.391,5.391,0,0,0,29.9,54v.456A1.084,1.084,0,0,1,29.13,55.5L28.1,55.81A6.169,6.169,0,0,0,26.024,54.7l-5.336-1.62a1.6,1.6,0,0,1-.751-.493,1.548,1.548,0,0,1-.3-.546,12.269,12.269,0,0,0,1.841-4.275,5.654,5.654,0,0,0,.036-2.079,6.8,6.8,0,0,0,.162-.855l.327-1.4a6.86,6.86,0,0,0-2.944-7.364,3.966,3.966,0,1,0-7.748,0A6.868,6.868,0,0,0,8.36,43.434l.329,1.4a6.9,6.9,0,0,0,.325,1.414,6.2,6.2,0,0,0,.053,1.232,11.4,11.4,0,0,0,1.662,4.317,1.584,1.584,0,0,1-1.109,1.3l-2.738.835-.026.008L4.349,54.7A6.107,6.107,0,0,0,0,60.577V66.29a.986.986,0,0,0,1.972,0V60.577a4.149,4.149,0,0,1,2.953-3.988l2.481-.757.026-.008.689-.209a11.284,11.284,0,0,0,7.1,3.215q.371.024.726.024a11.461,11.461,0,0,0,7.468-2.881l2.028.618.05.017-.6.184A5.1,5.1,0,0,0,21.257,61.7V66.29a.986.986,0,0,0,1.972,0v-4.6a3.14,3.14,0,0,1,2.235-3.024l2.375-.723a9.273,9.273,0,0,0,5.724,2.533c.2.013.394.02.593.02a9.419,9.419,0,0,0,6.08-2.318l1.611.49A3.141,3.141,0,0,1,44.084,61.7v4.592a.986.986,0,1,0,1.972,0V61.7a5.1,5.1,0,0,0-3.635-4.906l-.608-.185.054-.018,1.829-.558,2.734,3.124a1.9,1.9,0,0,0,2.63.23l2.091-1.675v8.449a.986.986,0,1,0,1.972,0V57.779l1.993,1.6a1.9,1.9,0,0,0,2.63-.227l2.761-3.145,1.895.577a4.149,4.149,0,0,1,2.949,3.99v5.712a.986.986,0,1,0,1.972,0V60.577A6.107,6.107,0,0,0,62.975,54.7ZM15.187,33.215a2,2,0,0,1,1.993,1.992,6.909,6.909,0,0,0-1.748-.263h-.2a6.979,6.979,0,0,0-2.045.263,2,2,0,0,1,1.995-1.992ZM10.28,42.963A4.931,4.931,0,0,1,15.2,36.914h.193a4.925,4.925,0,0,1,4.694,6.063v.007a4.163,4.163,0,0,0-2.025-.644c-.131-.016-.25-.032-.367-.05a4,4,0,0,1-1.946-.789c-.125-.112-.626-.614-.813-.828-.008-.017-.017-.034-.026-.051a.988.988,0,0,0-1.345-.368h0A10.846,10.846,0,0,0,10.28,42.963Zm9.265,4.413c-.388,1.946-2.132,5.428-4.225,5.435h-.008A3.755,3.755,0,0,1,12.5,50.9a9.438,9.438,0,0,1-1.481-3.7c-.263-1.851.638-3.393,2.821-4.808.216.222.515.517.615.6a6,6,0,0,0,2.932,1.241c.131.022.279.039.423.058.417.053.99.131,1.135.31A3.34,3.34,0,0,1,19.545,47.376Zm-4.19,9.482a9.143,9.143,0,0,1-5.017-1.929,3.535,3.535,0,0,0,1.539-1.059,3.482,3.482,0,0,0,.275-.38,4.712,4.712,0,0,0,3.156,1.293h.016a4.475,4.475,0,0,0,2.913-1.176c.06.085.124.17.192.25a3.55,3.55,0,0,0,1.678,1.1l.986.3a9.231,9.231,0,0,1-5.737,1.6ZM60.777,26.714A19.948,19.948,0,0,0,55.366,25.1a20.322,20.322,0,0,0-9.785.98A51.526,51.526,0,0,0,41.29,9.227a20.3,20.3,0,0,0-3.3-5.08C50.337,5.937,59.935,15.262,60.777,26.714Zm-38.818-.721a21.163,21.163,0,0,0-10.014-.886,20.758,20.758,0,0,0-5.4,1.621C7.384,15.247,17.017,5.9,29.4,4.138a20.083,20.083,0,0,0-3.277,5.111A51.433,51.433,0,0,0,21.959,25.993Zm1.972.117A49.288,49.288,0,0,1,27.91,10.1c1.816-3.853,4.021-6.249,5.753-6.259h.018c1.37,0,3.614,1.648,5.823,6.245A49.319,49.319,0,0,1,43.609,26.2a46.108,46.108,0,0,0-19.677-.1Zm5.632,19.33-.2-.857a2.585,2.585,0,0,1,.5-2.212,2.537,2.537,0,0,1,2-.964h.055a8.64,8.64,0,0,1,1.792.247l.36.074c.542.109,1.1.213,1.658.306a2.585,2.585,0,0,1,2.095,3.14l-.058.243a3.188,3.188,0,0,0-1.3-.338,1.673,1.673,0,0,1-.92-.263,2.87,2.87,0,0,0-3.731.218,1.28,1.28,0,0,1-.807.149,3.083,3.083,0,0,0-1.436.256Zm.657,2.857a1.493,1.493,0,0,1,.189-1.065c.08-.071.245-.079.6-.08A3.015,3.015,0,0,0,33,46.605a1.608,1.608,0,0,1,.872-.43.841.841,0,0,1,.5.222,3.526,3.526,0,0,0,1.9.646c.4.039.514.062.61.155a1.5,1.5,0,0,1,.225,1.109v1.812a3.44,3.44,0,1,1-6.879,0V48.366a.524.524,0,0,1-.007-.068ZM33.7,58.516a7.132,7.132,0,0,1-3.611-1.279,3.024,3.024,0,0,0,1.691-2.045,5.4,5.4,0,0,0,3.719.018,3.048,3.048,0,0,0,2.066,2.158l.313.1A7.181,7.181,0,0,1,33.7,58.516ZM47.375,39.938l-.209-.967a3.757,3.757,0,0,1,.719-3.138,2.893,2.893,0,0,1,2.271-1.126h.072a9.322,9.322,0,0,1,2.068.312l.394.088c.625.138,1.264.263,1.9.381a3.067,3.067,0,0,1,2,1.352,3.754,3.754,0,0,1,.526,2.867l-.068.314a3.1,3.1,0,0,0-1.762-.569,2.139,2.139,0,0,1-1.123-.312,3.179,3.179,0,0,0-4.015.231,1.66,1.66,0,0,1-1.013.187,3.258,3.258,0,0,0-1.763.379Zm8.785,3.585v1.218c0,2.255-2.024,5.391-4.016,5.391S48.127,47,48.127,44.741V42.808c-.043-.581.039-.991.234-1.155.132-.108.338-.12.789-.121a3.424,3.424,0,0,0,2.149-.551,2,2,0,0,1,1.077-.484,1.173,1.173,0,0,1,.671.263,4.009,4.009,0,0,0,2.068.657c.464.042.639.068.782.2a1.611,1.611,0,0,1,.271,1.2v.7ZM47.882,57.806l-2.1-2.409,1.372-.418a3.551,3.551,0,0,0,.974-.469l2.209,1.328Zm4.208-3.21-2.713-1.629a3.574,3.574,0,0,0,.291-1.332c.012-.1.025-.192.036-.288a4.3,4.3,0,0,0,4.831.028v.188a3.532,3.532,0,0,0,.1.844,3.459,3.459,0,0,0,.184.546ZM56.3,57.807l-2.448-1.972,2.235-1.344a3.567,3.567,0,0,0,.969.467l1.373.418Z" transform="translate(0 0)" fill="#3c3b41"/>
      </g>
    </g>
  </g>
</svg>
