<svg xmlns="http://www.w3.org/2000/svg" width="160" height="160" viewBox="0 0 160 160">
  <g id="icon-book" transform="translate(-5642 -3140)">
    <g id="Group_35" data-name="Group 35" transform="translate(5447 1801)">
      <rect id="Rectangle_28" data-name="Rectangle 28" width="160" height="160" rx="80" transform="translate(195 1339)" fill="none"/>
    </g>
    <path id="Path_236" data-name="Path 236" d="M11.83,45.16V2.325a1.2,1.2,0,0,1,1.2-1.2H47.5a1.2,1.2,0,0,1,1.2,1.2V45.16a1.2,1.2,0,0,1-1.2,1.2H13.031A1.2,1.2,0,0,1,11.83,45.16Z" transform="translate(5693.839 3193.958)" fill="#696967"/>
    <rect id="Rectangle_38" data-name="Rectangle 38" width="33.076" height="41.444" transform="translate(5707.565 3196.979)" fill="#e4e4e3"/>
    <path id="Path_237" data-name="Path 237" d="M39.39,16.438V31.3H16.64V21.059l2.627-3.015,2.161,1.874,3.552-2.631,2.448,1.967,3.227-1.967L34.47,20.1Z" transform="translate(5694.628 3196.47)" fill="#59b1e3"/>
    <path id="Path_238" data-name="Path 238" d="M40.226,32.167h-24.6V18.084H16.8V31H40.226Z" transform="translate(5694.463 3196.74)" fill="#c7c7c7"/>
    <path id="Path_239" data-name="Path 239" d="M29.054,7.621a2.033,2.033,0,0,1-1.432-.554,2.357,2.357,0,0,0-1.637-.745h-5.7A1.083,1.083,0,0,1,19.205,5.24V2.55H38.9V5.24a1.083,1.083,0,0,1-1.081,1.082h-5.7a2.381,2.381,0,0,0-1.643.752A2.035,2.035,0,0,1,29.054,7.621Zm-9.374-4.6V5.24a.608.608,0,0,0,.607.607h5.7a2.789,2.789,0,0,1,1.971.884,1.721,1.721,0,0,0,2.192.005,2.81,2.81,0,0,1,1.976-.889h5.7a.608.608,0,0,0,.607-.607V3.024Z" transform="translate(5695.049 3194.191)" fill="#221f1f"/>
    <path id="Path_240" data-name="Path 240" d="M39.714,2.273v.455a.405.405,0,0,1-.408.408H19a.4.4,0,0,1-.408-.408V2.273A.405.405,0,0,1,19,1.865h20.3A.405.405,0,0,1,39.714,2.273Z" transform="translate(5694.949 3194.079)" fill="#221f1f"/>
    <path id="Path_241" data-name="Path 241" d="M19.72,14.868c-.066.574.132,1.015.132,1.744S17.843,24.427,17.8,24.78a7.542,7.542,0,0,1-1.744,2.848,29.612,29.612,0,0,0-2.583,3,40.467,40.467,0,0,0-8.323-.817,43.847,43.847,0,0,0-.375-11.06c-.4-1.236.706-2.936.706-2.936a14.675,14.675,0,0,1,.906-4.46c.353-.993,3.046-1.5,3.046-1.5,3.179-2.163,6.6-2.8,7.219-2.605.6.2.221,1.788.066,1.987-.177.2-3.378,1.634-4.5,2.3-1.126.684-.375.883-.375.883,1.28-1.1,6.424-3.223,6.888-3,.464.2.354,1.435.133,1.9-.221.442-3.422,2.1-4.216,2.716a9.673,9.673,0,0,0-2.009,4.04c-.088.817,1.568,1.413,2.384.949.839-.486,1.567-4.636,2.031-5.365a2.6,2.6,0,0,1,2.274-1.3C20.162,12.459,19.858,14.037,19.72,14.868Z" transform="translate(5692.667 3194.957)" fill="#ffca67"/>
    <path id="Path_242" data-name="Path 242" d="M16.458,28.086,14.383,52.524H1.5l2.583-25.9H5.672a40.617,40.617,0,0,1,8.323.817Z" transform="translate(5692.145 3198.142)" fill="#83bd57"/>
    <path id="Path_243" data-name="Path 243" d="M11.693,12.065,7.281,15.732A27.326,27.326,0,0,1,11.693,12.065ZM9.283,9.528,5.372,15.441A41.867,41.867,0,0,1,9.283,9.528Z" transform="translate(5692.78 3195.336)" fill="#f5b948"/>
    <path id="Path_244" data-name="Path 244" d="M17.94,13.528c-.2.321-.333.463-.662.331-.461-.2-.533-.467-.773-.706-.2-.152-.374-.184-.265-1.06a.838.838,0,0,1,.066-.221,1.84,1.84,0,0,1,1.126-.243C18.117,11.717,18.028,12.777,17.94,13.528Z" transform="translate(5694.557 3195.679)" fill="#fff"/>
    <path id="Path_245" data-name="Path 245" d="M41.127,37.912l-1.383-.019L37.6,50.841H49.331l.957-10.886-1.063-.348-7.052-2.715Z" transform="translate(5698.068 3199.826)" fill="#83bd57"/>
    <path id="Path_246" data-name="Path 246" d="M46.521,25.883a1.105,1.105,0,1,1-.733,2.082c-11.023-4.566-11.1-4.41-10.843-5.019C35.252,22.207,35.63,22.885,46.521,25.883Z" transform="translate(5697.622 3197.493)" fill="#696967"/>
    <path id="Path_247" data-name="Path 247" d="M37.013,24.246,35.22,23.5C35.607,23.114,36.443,23.107,37.013,24.246Z" transform="translate(5697.677 3197.59)" fill="#b77d55"/>
    <path id="Path_248" data-name="Path 248" d="M35.455,22.688l1.525.442C36.192,23.327,35.21,23.459,35.455,22.688Z" transform="translate(5697.709 3197.495)" fill="#b77d55"/>
    <path id="Path_249" data-name="Path 249" d="M35.735,22.731l-.487.8-1.473-1.213Z" transform="translate(5697.44 3197.435)" fill="#696967"/>
    <path id="Path_250" data-name="Path 250" d="M50.225,30.479c-.314,2.538-.326,12.036-.326,12.036l-8.09-1.7a6.1,6.1,0,0,0-.547-3.632c-3.574-.78-7.59-9.65-7.8-10.5s1.676-1.921,1.676-1.921c.549-1.235,1.575-1.029,2.165.151a3.043,3.043,0,0,1,.326.966,3.786,3.786,0,0,0,.908,1.932c.547.4,2.06-.477,3.143-1.036.012-.012.035-.012.047-.023l4.3,1.781a1.106,1.106,0,1,0,.733-2.084L42.4,25.183a4.041,4.041,0,0,0-.1-.815c-.768-.233-1.793-1.886-1.793-1.886a3.877,3.877,0,0,0-1.525.524,5.231,5.231,0,0,1-1.676.7c-2.895.724-1.023-1.179,0-2.77.407-.652,2.852-1.176,3.632-1.595a1.59,1.59,0,0,1,1.571.151c.861-.186,6.8,3.818,7.543,4.284S50.539,27.942,50.225,30.479Z" transform="translate(5697.386 3196.921)" fill="#ffca67"/>
  </g>
</svg>
