<svg xmlns="http://www.w3.org/2000/svg" width="160" height="160" viewBox="0 0 160 160">
  <g id="icon-home-ins" transform="translate(-4790 -3140)">
    <rect id="Rectangle_73" data-name="Rectangle 73" width="160" height="160" rx="80" transform="translate(4790 3140)" fill="none"/>
    <path id="Path_282" data-name="Path 282" d="M7,16.98H49.756V54.985H7Z" transform="translate(4841.622 3189.541)" fill="#f6c358"/>
    <path id="Path_283" data-name="Path 283" d="M49.548,55.589H6.792A.792.792,0,0,1,6,54.8V16.792A.792.792,0,0,1,6.792,16H49.548a.792.792,0,0,1,.792.792V54.8A.792.792,0,0,1,49.548,55.589ZM7.584,54.005H48.756V17.584H7.584Z" transform="translate(4841.83 3189.745)"/>
    <path id="Path_284" data-name="Path 284" d="M49.026,6.98H6.064L3,14.9H52.09L49.026,6.98Z" transform="translate(4842.455 3191.623)" fill="#e56353"/>
    <path id="Path_285" data-name="Path 285" d="M51.882,15.5H2.792a.792.792,0,0,1-.736-1.077L5.12,6.507A.792.792,0,0,1,5.857,6H48.818a.792.792,0,0,1,.736.507l3.064,7.918a.792.792,0,0,1-.736,1.077ZM3.948,13.918H50.726L48.272,7.584H6.4Z" transform="translate(4842.663 3191.827)"/>
    <path id="Path_286" data-name="Path 286" d="M11,22.98h5.542v6.334H11Z" transform="translate(4840.789 3188.292)" fill="#72bede"/>
    <path id="Path_287" data-name="Path 287" d="M16.334,29.918H10.792A.792.792,0,0,1,10,29.126V22.792A.792.792,0,0,1,10.792,22h5.542a.792.792,0,0,1,.792.792v6.334A.792.792,0,0,1,16.334,29.918Zm-4.751-1.584h3.959V23.584H11.584Z" transform="translate(4840.998 3188.495)"/>
    <path id="Path_288" data-name="Path 288" d="M11,30.98h5.542v6.334H11Z" transform="translate(4840.789 3186.625)" fill="#72bede"/>
    <path id="Path_289" data-name="Path 289" d="M16.334,37.918H10.792A.792.792,0,0,1,10,37.126V30.792A.792.792,0,0,1,10.792,30h5.542a.792.792,0,0,1,.792.792v6.334A.792.792,0,0,1,16.334,37.918Zm-4.751-1.584h3.959V31.584H11.584Z" transform="translate(4840.998 3186.83)"/>
    <path id="Path_290" data-name="Path 290" d="M11,50.98h5.542v6.334H11Z" transform="translate(4840.789 3182.461)" fill="#72bede"/>
    <path id="Path_291" data-name="Path 291" d="M16.334,57.918H10.792A.792.792,0,0,1,10,57.126V50.792A.792.792,0,0,1,10.792,50h5.542a.792.792,0,0,1,.792.792v6.334A.792.792,0,0,1,16.334,57.918Zm-4.751-1.584h3.959V51.584H11.584Z" transform="translate(4840.998 3182.665)"/>
    <path id="Path_292" data-name="Path 292" d="M11,42.98h5.542v6.334H11Z" transform="translate(4840.789 3184.127)" fill="#72bede"/>
    <path id="Path_293" data-name="Path 293" d="M16.334,49.918H10.792A.792.792,0,0,1,10,49.126V42.792A.792.792,0,0,1,10.792,42h5.542a.792.792,0,0,1,.792.792v6.334A.792.792,0,0,1,16.334,49.918Zm-4.751-1.584h3.959V43.584H11.584Z" transform="translate(4840.998 3184.331)"/>
    <path id="Path_294" data-name="Path 294" d="M50,22.98h5.542v6.334H50Z" transform="translate(4832.668 3188.292)" fill="#72bede"/>
    <path id="Path_295" data-name="Path 295" d="M55.334,29.918H49.792A.792.792,0,0,1,49,29.126V22.792A.792.792,0,0,1,49.792,22h5.542a.792.792,0,0,1,.792.792v6.334A.792.792,0,0,1,55.334,29.918Zm-4.751-1.584h3.959V23.584H50.584Z" transform="translate(4832.876 3188.495)"/>
    <path id="Path_296" data-name="Path 296" d="M50,30.98h5.542v6.334H50Z" transform="translate(4832.668 3186.625)" fill="#72bede"/>
    <path id="Path_297" data-name="Path 297" d="M55.334,37.918H49.792A.792.792,0,0,1,49,37.126V30.792A.792.792,0,0,1,49.792,30h5.542a.792.792,0,0,1,.792.792v6.334A.792.792,0,0,1,55.334,37.918Zm-4.751-1.584h3.959V31.584H50.584Z" transform="translate(4832.876 3186.83)"/>
    <path id="Path_298" data-name="Path 298" d="M50,50.98h5.542v6.334H50Z" transform="translate(4832.668 3182.461)" fill="#72bede"/>
    <path id="Path_299" data-name="Path 299" d="M55.334,57.918H49.792A.792.792,0,0,1,49,57.126V50.792A.792.792,0,0,1,49.792,50h5.542a.792.792,0,0,1,.792.792v6.334A.792.792,0,0,1,55.334,57.918Zm-4.751-1.584h3.959V51.584H50.584Z" transform="translate(4832.876 3182.665)"/>
    <path id="Path_300" data-name="Path 300" d="M50,42.98h5.542v6.334H50Z" transform="translate(4832.668 3184.127)" fill="#72bede"/>
    <path id="Path_301" data-name="Path 301" d="M55.334,49.918H49.792A.792.792,0,0,1,49,49.126V42.792A.792.792,0,0,1,49.792,42h5.542a.792.792,0,0,1,.792.792v6.334A.792.792,0,0,1,55.334,49.918Zm-4.751-1.584h3.959V43.584H50.584Z" transform="translate(4832.876 3184.331)"/>
    <path id="Path_302" data-name="Path 302" d="M31.5,3,22,18.835V52.09h3.959V41.251a5.709,5.709,0,0,1,5.4-5.788,5.542,5.542,0,0,1,5.685,5.542V52.09H41V18.835Z" transform="translate(4838.499 3192.452)" fill="#e1e6e9"/>
    <path id="Path_303" data-name="Path 303" d="M40.794,52.675H36.835a.792.792,0,0,1-.792-.792V40.8a4.751,4.751,0,0,0-4.877-4.751,4.917,4.917,0,0,0-4.624,5V51.884a.792.792,0,0,1-.792.792H21.792A.792.792,0,0,1,21,51.884V18.629a.792.792,0,0,1,.111-.4l9.5-15.835a.792.792,0,0,1,1.354,0l9.5,15.835a.792.792,0,0,1,.119.4V51.884A.792.792,0,0,1,40.794,52.675Zm-3.167-1.584H40V18.835L31.293,4.322l-8.71,14.513V51.092h2.375V41.044a6.508,6.508,0,0,1,6.168-6.58,6.215,6.215,0,0,1,4.584,1.8A6.287,6.287,0,0,1,37.627,40.8Z" transform="translate(4838.707 3192.658)"/>
    <path id="Path_304" data-name="Path 304" d="M26,24.98H38.668v6.334H26Z" transform="translate(4837.666 3187.875)" fill="#72bede"/>
    <path id="Path_305" data-name="Path 305" d="M38.46,31.918H25.792A.792.792,0,0,1,25,31.126V24.792A.792.792,0,0,1,25.792,24H38.46a.792.792,0,0,1,.792.792v6.334A.792.792,0,0,1,38.46,31.918ZM26.584,30.334H37.668V25.584H26.584Z" transform="translate(4837.874 3188.079)"/>
  </g>
</svg>
