<svg xmlns="http://www.w3.org/2000/svg" width="160" height="160" viewBox="0 0 160 160">
  <g id="icon-manager" transform="translate(-5417 -3140)">
    <g id="Group_34" data-name="Group 34" transform="translate(5222 1801)">
      <rect id="Rectangle_28" data-name="Rectangle 28" width="160" height="160" rx="80" transform="translate(195 1339)" fill="none"/>
    </g>
    <circle id="Ellipse_14" data-name="Ellipse 14" cx="3.445" cy="3.445" r="3.445" transform="matrix(0.966, -0.259, 0.259, 0.966, 5504.604, 3204.19)" fill="#cfd8dc"/>
    <circle id="Ellipse_15" data-name="Ellipse 15" cx="3.444" cy="3.444" r="3.444" transform="matrix(0.966, -0.259, 0.259, 0.966, 5500.735, 3201.152)" fill="#cfd8dc"/>
    <circle id="Ellipse_16" data-name="Ellipse 16" cx="4.429" cy="4.429" r="4.429" transform="matrix(0.966, -0.259, 0.259, 0.966, 5504.723, 3197.026)" fill="#cfd8dc"/>
    <circle id="Ellipse_17" data-name="Ellipse 17" cx="5.413" cy="5.413" r="5.413" transform="matrix(0.966, -0.259, 0.259, 0.966, 5509.222, 3194.802)" fill="#cfd8dc"/>
    <circle id="Ellipse_18" data-name="Ellipse 18" cx="5.169" cy="5.169" r="5.169" transform="matrix(0.966, -0.259, 0.259, 0.966, 5507.601, 3202.293)" fill="#cfd8dc"/>
    <circle id="Ellipse_19" data-name="Ellipse 19" cx="4.921" cy="4.921" r="4.921" transform="matrix(0.966, -0.259, 0.259, 0.966, 5513.347, 3198.791)" fill="#cfd8dc"/>
    <circle id="Ellipse_20" data-name="Ellipse 20" cx="1.748" cy="1.748" r="1.748" transform="matrix(0.966, -0.259, 0.259, 0.966, 5499.233, 3208.802)" fill="#cfd8dc"/>
    <circle id="Ellipse_21" data-name="Ellipse 21" cx="1.165" cy="1.165" r="1.165" transform="matrix(0.966, -0.259, 0.259, 0.966, 5497.033, 3212.128)" fill="#cfd8dc"/>
    <g id="Group_56" data-name="Group 56" transform="translate(5462.295 2198.751)">
      <rect id="Rectangle_39" data-name="Rectangle 39" width="3.626" height="3.367" transform="translate(49.504 1004.35)" fill="#ffc107"/>
      <circle id="Ellipse_22" data-name="Ellipse 22" cx="3.885" cy="3.885" r="3.885" transform="translate(47.431 997.885)" fill="#ffc107"/>
      <path id="Path_251" data-name="Path 251" d="M51.317,1003.06v3.626" fill="none" stroke="#e9eded" stroke-width="1"/>
      <rect id="Rectangle_40" data-name="Rectangle 40" width="2.59" height="2.59" transform="translate(50.022 1008.11)" fill="#263238"/>
      <path id="Path_252" data-name="Path 252" d="M51.317,997.88a3.883,3.883,0,0,1,1.813,7.318v2.524h-.518V1005.2a3.88,3.88,0,0,0-1.584-7.307q.144-.011.289-.012Z" fill="#ff9800"/>
      <rect id="Rectangle_41" data-name="Rectangle 41" width="4.144" height="3.173" transform="translate(49.245 1006.36)" fill="#455a64"/>
      <rect id="Rectangle_42" data-name="Rectangle 42" width="4.734" height="1.007" rx="0.503" transform="translate(49 1007.36)" fill="#263238"/>
      <path id="Path_253" data-name="Path 253" d="M52.611,1003.12h-2.59" fill="none" stroke="#e9eded" stroke-width="1"/>
      <path id="Path_254" data-name="Path 254" d="M48.429,1002.17a3.237,3.237,0,0,1,3.237-3.237" fill="none" stroke="#ffeb3b" stroke-width="0.583"/>
    </g>
    <path id="Path_255" data-name="Path 255" d="M13.8,1001.66v3.211a5.5,5.5,0,0,0-1.176.492l-2.273-2.273-2.121,2.121,2.27,2.269a5.5,5.5,0,0,0-.484,1.18H6.8v3H10.01a5.5,5.5,0,0,0,.492,1.176l-2.273,2.273,2.121,2.121,2.27-2.269a5.5,5.5,0,0,0,1.18.484v3.215h3v-3.211a5.494,5.494,0,0,0,1.176-.492l2.273,2.273,2.121-2.121-2.27-2.269a5.5,5.5,0,0,0,.484-1.18H23.8v-3H20.588a5.5,5.5,0,0,0-.49-1.178l2.272-2.272-2.121-2.121-2.27,2.269a5.506,5.506,0,0,0-1.18-.484v-3.215h-3Z" transform="translate(5464.495 2200.451)" fill="#f44336"/>
    <circle id="Ellipse_23" data-name="Ellipse 23" cx="2.5" cy="2.5" r="2.5" transform="translate(5477.294 3208.111)" fill="#e9eded" stroke="#263238" stroke-linecap="round" stroke-linejoin="round" stroke-width="1"/>
    <path id="Path_256" data-name="Path 256" d="M51.563,992.765a5.42,5.42,0,0,0-.687.021,5.413,5.413,0,0,1,4.709,3.986q.061.233.1.471a4.913,4.913,0,0,1-2.227,9.469,5.1,5.1,0,0,1-4.525,3.918,5.144,5.144,0,0,0,5.525-3.918,4.915,4.915,0,0,0,2.227-9.469q-.04-.237-.1-.471a5.413,5.413,0,0,0-5.021-4.008Zm-5.777,2.512a4.418,4.418,0,0,0-.625.029,4.424,4.424,0,0,1,.547.094q.038-.062.078-.123ZM40.2,999.7q-.124.011-.246.031.138.019.273.049,0-.04,0-.08H40.2Zm-3.258,8.139a1.749,1.749,0,0,0-.52.059l-.047.016a1.745,1.745,0,0,1,0,3.346,1.747,1.747,0,1,0,.568-3.42Zm7.936,1.4a3.093,3.093,0,0,1-1.053.334,3.444,3.444,0,0,0,1.361-.07q-.159-.126-.309-.263Zm-10.873,2.092a1.154,1.154,0,0,0-.545.113,1.164,1.164,0,0,1,0,2.1,1.165,1.165,0,1,0,.543-2.217Z" transform="translate(5464.495 2200.451)" fill="#b0bec5"/>
    <path id="Path_257" data-name="Path 257" d="M15.8,1001.66v3.215a5.5,5.5,0,0,1,1.18.484l.314-.314q-.243-.1-.494-.17v-3.215h-1Zm-5.449,1.43-.5.5,1.773,1.773a5.515,5.515,0,0,1,.678-.322l-1.951-1.951Zm9.9,0-.5.5,1.621,1.621-2.271,2.271a5.5,5.5,0,0,1,.49,1.178h1a5.5,5.5,0,0,0-.49-1.178l2.271-2.271Zm2.551,5.57v3h1v-3Zm-3.215,3a5.5,5.5,0,0,1-.484,1.18l2.27,2.269-1.621,1.621.5.5,2.121-2.121-2.27-2.269a5.5,5.5,0,0,0,.484-1.18Zm-2.609,3.3a5.5,5.5,0,0,1-1.176.492v3.211h1v-3.211q.253-.073.5-.17Zm-5.355,0-1.77,1.769.5.5,1.955-1.955a5.5,5.5,0,0,1-.686-.314Z" transform="translate(5464.495 2200.451)" fill="#d22e2e"/>
    <g id="Group_57" data-name="Group 57" transform="translate(5466.695 2199.151)">
      <path id="Path_258" data-name="Path 258" d="M7.762,993.362l-.512,1.911a3.385,3.385,0,0,0-.778.105l-.991-1.716-1.6.924.989,1.713a3.385,3.385,0,0,0-.477.625l-1.914-.512L2,998.2l1.911.512a3.39,3.39,0,0,0,.105.778l-1.716.991.924,1.6,1.713-.989a3.388,3.388,0,0,0,.625.477l-.513,1.914,1.786.479.512-1.911a3.4,3.4,0,0,0,.778-.106l.991,1.716,1.6-.924-.989-1.713a3.39,3.39,0,0,0,.477-.625l1.914.513.479-1.786-1.911-.512a3.39,3.39,0,0,0-.1-.779l1.715-.99-.924-1.6-1.713.989a3.391,3.391,0,0,0-.625-.477l.513-1.914-1.786-.479Z" fill="#ffc107"/>
      <circle id="Ellipse_24" data-name="Ellipse 24" cx="1.541" cy="1.541" r="1.541" transform="matrix(0.966, 0.259, -0.259, 0.966, 6.21, 996.779)" fill="#e9eded" stroke="#263238" stroke-linecap="round" stroke-linejoin="round" stroke-width="1"/>
      <path id="Path_259" data-name="Path 259" d="M7.762,5,7.7,5.25l.854.229L8.035,7.393a3.39,3.39,0,0,1,.625.477l.584-.338q-.1-.073-.209-.139l.514-1.914ZM5.48,5.3l-.75.434.74,1.283a3.39,3.39,0,0,1,.779-.105L6.3,6.723,5.48,5.3Zm5.893,1.578-.75.434L11.3,8.48l-1.713.99a3.39,3.39,0,0,1,.1.779l1.91.512L11.186,12.3l.934.25.479-1.787-1.91-.512a3.39,3.39,0,0,0-.1-.779L12.3,8.48l-.924-1.6ZM2.479,8.051l-.066.25.98.262q.072-.116.152-.227L2.479,8.051Zm6.729,3.984a3.39,3.39,0,0,1-.477.625l.988,1.713-.852.49.25.434,1.6-.924L9.73,12.66a3.39,3.39,0,0,0,.322-.4l-.846-.226Zm-5.27.7-.963.555.25.434,1.131-.652a3.39,3.39,0,0,1-.418-.336Zm3.189.852a3.39,3.39,0,0,1-.779.105L5.9,15.348l.934.25L7.3,13.877l-.17-.295Z" transform="translate(0 988.362)" fill="#ff9800"/>
    </g>
    <path id="Path_260" data-name="Path 260" d="M49.692,1039.98l-1.972,1.972a1.547,1.547,0,1,0-1.749,1.749L44,1045.67l5.692,5.692,5.692-5.692-1.971-1.971a1.549,1.549,0,1,1-1.749-1.749l-1.972-1.972Z" transform="translate(5464.495 2200.451)" fill="#8bc34a"/>
    <path id="Path_261" data-name="Path 261" d="M9.336,1046.16h2m-1-1v2" transform="translate(5464.495 2200.451)" fill="none" stroke="#f44336" stroke-linecap="round" stroke-linejoin="round" stroke-width="1"/>
    <circle id="Ellipse_25" data-name="Ellipse 25" cx="1" cy="1" r="1" transform="translate(5474.633 3225.95) rotate(30)" fill="none" stroke="#1976d2" stroke-linecap="round" stroke-linejoin="round" stroke-width="1"/>
    <path id="Path_262" data-name="Path 262" d="M3.5,1035.02l.707.707m1.419,1.423.707.707m0-2.837-.707.707m-1.419,1.423-.707.707" transform="translate(5464.495 2200.451)" fill="none" stroke="#388e3c" stroke-linecap="round" stroke-linejoin="round" stroke-width="1"/>
    <path id="Path_263" data-name="Path 263" d="M28.8,745.236v-.726m0,0a1.425,1.425,0,0,1,.847-1.231,1.128,1.128,0,0,0,.447-1.316,1.009,1.009,0,0,0-1.132-.7,1.071,1.071,0,0,0-.84,1.073m.678,4.354h0" transform="translate(5478.492 2482.111)" fill="none" stroke="#263238" stroke-linecap="round" stroke-linejoin="round" stroke-width="1"/>
    <path id="Path_264" data-name="Path 264" d="M28.8,745.239v-.726m0,0a1.425,1.425,0,0,1,.847-1.231,1.128,1.128,0,0,0,.447-1.316,1.009,1.009,0,0,0-1.132-.7,1.071,1.071,0,0,0-.84,1.073m.678,4.354h0" transform="translate(6026.247 2691.851) rotate(45)" fill="none" stroke="#263238" stroke-linecap="round" stroke-linejoin="round" stroke-width="1"/>
    <g id="icon-book" transform="translate(5473.131 2583.128)">
      <rect id="Rectangle_43" data-name="Rectangle 43" width="2.545" height="3.818" rx="1.273" transform="translate(16.545 646.071) rotate(180)" fill="#ffc107"/>
      <rect id="Rectangle_44" data-name="Rectangle 44" width="2.545" height="3.818" rx="1.273" transform="translate(26.727 646.071) rotate(180)" fill="#ffc107"/>
      <rect id="Rectangle_45" data-name="Rectangle 45" width="6.364" height="7" transform="translate(17.182 648.616)" fill="#ffc107"/>
      <path id="Path_265" data-name="Path 265" d="M9.475,656.889c1.244-.636,7.707-3.818,7.707-3.818h6.364l7.707,3.818c1.549.767,3.111,1.419,3.111,3.182v9.609h-28v-9.609c0-1.763,1.867-2.545,3.111-3.182Z" fill="#81d4fa" fill-rule="evenodd"/>
      <path id="Path_266" data-name="Path 266" d="M17.182,653.071s-6.463,3.182-7.707,3.818-3.111,1.419-3.111,3.182v.7c0-1.763,1.867-2.545,3.111-3.182s7.707-3.818,7.707-3.818h6.364l7.707,3.818c1.549.767,3.111,1.419,3.111,3.182v-.7c0-1.763-1.562-2.415-3.111-3.182l-7.707-3.818H17.182Z" fill="#03a9f4" fill-rule="evenodd"/>
      <rect id="Rectangle_46" data-name="Rectangle 46" width="1.273" height="2.545" rx="0.636" transform="translate(14.636 642.953)" fill="#ff9800"/>
      <rect id="Rectangle_47" data-name="Rectangle 47" width="1.273" height="2.545" rx="0.636" transform="translate(24.818 642.953)" fill="#ff9800"/>
      <path id="Path_267" data-name="Path 267" d="M17.182,648.616v2.13a5.1,5.1,0,0,0,6.364,0v-2.13Z" fill="#ff9800"/>
      <rect id="Rectangle_48" data-name="Rectangle 48" width="10.182" height="12.091" rx="5.091" transform="translate(15.273 639.071)" fill="#ffc107"/>
      <rect id="Rectangle_49" data-name="Rectangle 49" width="10.182" height="5.791" transform="translate(15.273 639.071)" fill="#ffc107"/>
      <path id="Path_268" data-name="Path 268" d="M16.488,653.414l.694-.344,3.182-.388,3.182.388.655.325-3.856,1.281Z" fill="#ffc107" fill-rule="evenodd"/>
      <rect id="Rectangle_50" data-name="Rectangle 50" width="1.273" height="6.364" transform="translate(10.818 663.284)" fill="#03a9f4"/>
      <rect id="Rectangle_51" data-name="Rectangle 51" width="1.273" height="6.364" transform="translate(28.636 663.284)" fill="#03a9f4"/>
      <rect id="Rectangle_52" data-name="Rectangle 52" width="1.909" height="1.909" transform="translate(19.014 655.825) rotate(-45)" fill="#f44336"/>
      <path id="Path_269" data-name="Path 269" d="M19.41,648.362h1.908" fill="none" stroke="#ff9800" stroke-linecap="round" stroke-linejoin="round" stroke-width="1"/>
      <circle id="Ellipse_26" data-name="Ellipse 26" cx="0.318" cy="0.318" r="0.318" transform="translate(17.818 644.225)"/>
      <path id="Path_270" data-name="Path 270" d="M20.364,645.186v1.272m-3.5-2.481a1.5,1.5,0,0,1,2.541,0" fill="none" stroke="#ff9800" stroke-linecap="round" stroke-linejoin="round" stroke-width="1"/>
      <circle id="Ellipse_27" data-name="Ellipse 27" cx="0.318" cy="0.318" r="0.318" transform="translate(22.273 644.225)"/>
      <path id="Path_271" data-name="Path 271" d="M21.32,643.977a1.5,1.5,0,0,1,2.541,0" fill="none" stroke="#ff9800" stroke-linecap="round" stroke-linejoin="round" stroke-width="1"/>
      <rect id="Rectangle_53" data-name="Rectangle 53" width="2.545" height="3.818" rx="1.273" transform="translate(16.545 646.071) rotate(180)" fill="#ffc107"/>
      <rect id="Rectangle_54" data-name="Rectangle 54" width="2.545" height="3.818" rx="1.273" transform="translate(26.727 646.071) rotate(180)" fill="#ffc107"/>
      <rect id="Rectangle_55" data-name="Rectangle 55" width="6.364" height="7" transform="translate(17.182 648.616)" fill="#ffc107"/>
      <rect id="Rectangle_56" data-name="Rectangle 56" width="1.273" height="2.545" rx="0.636" transform="translate(14.636 642.953)" fill="#ff9800"/>
      <rect id="Rectangle_57" data-name="Rectangle 57" width="1.273" height="2.545" rx="0.636" transform="translate(24.818 642.953)" fill="#ff9800"/>
      <path id="Path_272" data-name="Path 272" d="M17.182,648.616v2.13a5.1,5.1,0,0,0,6.364,0v-2.13Z" fill="#ff9800"/>
      <rect id="Rectangle_58" data-name="Rectangle 58" width="10.182" height="12.091" rx="5.091" transform="translate(15.273 639.071)" fill="#ffc107"/>
      <rect id="Rectangle_59" data-name="Rectangle 59" width="10.182" height="5.791" transform="translate(15.273 639.071)" fill="#ffc107"/>
      <path id="Path_273" data-name="Path 273" d="M16.488,653.414l.694-.344,3.182-.388,3.182.388.655.325-3.856,1.281Z" fill="#ffc107" fill-rule="evenodd"/>
      <path id="Path_274" data-name="Path 274" d="M19.409,655.743h1.909l1.273,10.882-2.227,3.118-2.227-3.118Z" fill="#f44336"/>
      <rect id="Rectangle_60" data-name="Rectangle 60" width="1.273" height="6.364" transform="translate(10.818 663.284)" fill="#03a9f4"/>
      <rect id="Rectangle_61" data-name="Rectangle 61" width="1.273" height="6.364" transform="translate(28.636 663.284)" fill="#03a9f4"/>
      <path id="Path_275" data-name="Path 275" d="M21.481,657.144l-.115-1.033L21,655.744H19.726l-.365.367-.117,1.033" fill="#b71c1c"/>
      <path id="Path_276" data-name="Path 276" d="M18.773,656l1.591-1.591L21.954,656l-.533.533H19.3Z" fill="#f44336"/>
      <path id="Path_277" data-name="Path 277" d="M17.182,653.071l3.182,1.412-2.545,2.47L15.273,654Zm6.364,0-3.182,1.412,2.545,2.47L25.454,654Z" fill="#e9eded" fill-rule="evenodd"/>
      <circle id="Ellipse_28" data-name="Ellipse 28" cx="0.318" cy="0.318" r="0.318" transform="translate(17.818 644.225)" fill="#ff9800"/>
      <path id="Path_278" data-name="Path 278" d="M20.364,645.7v.971m-3.5-2.69a1.5,1.5,0,0,1,2.541,0" fill="none" stroke="#ff9800" stroke-linecap="round" stroke-linejoin="round" stroke-width="1"/>
      <circle id="Ellipse_29" data-name="Ellipse 29" cx="0.318" cy="0.318" r="0.318" transform="translate(22.273 644.225)" fill="#ff9800"/>
      <path id="Path_279" data-name="Path 279" d="M21.32,643.977a1.5,1.5,0,0,1,2.541,0m-1.948,4.563a2.227,2.227,0,0,1-3.1.03" fill="none" stroke="#ff9800" stroke-linecap="round" stroke-linejoin="round" stroke-width="1"/>
      <path id="Path_280" data-name="Path 280" d="M278.726,136.181a6.356,6.356,0,0,0-5.091,10.172v-2.611a8.079,8.079,0,0,0,7.717-2.787,3.8,3.8,0,0,0,2.465,1.532v3.863a6.354,6.354,0,0,0-5.091-10.169Z" transform="translate(-258.362 498.5)" fill="#263238"/>
      <path id="Path_281" data-name="Path 281" d="M15.659,24.86l-.387.189L17.818,28l2.545-2.47-.45-.2-2.1,2.033Zm9.409,0-2.159,2.5-2.1-2.033-.45.2L22.909,28l2.545-2.951Z" transform="translate(0 628.954)" fill="#b0bec5" fill-rule="evenodd"/>
    </g>
  </g>
</svg>
