<svg xmlns="http://www.w3.org/2000/svg" width="160" height="160" viewBox="0 0 160 160">
  <g id="icon8" transform="translate(-185 -1339)">
    <rect id="Rectangle_28" data-name="Rectangle 28" width="160" height="160" rx="80" transform="translate(185 1339)" fill="none"/>
    <g id="criminal-act" transform="translate(235.4 1391.908)">
      <path id="Path_125" data-name="Path 125" d="M8.213,41.375A9.571,9.571,0,0,0,16.4,24.43h.008l.584-2.159A1.4,1.4,0,0,0,16,20.551l-1.092-.3h0l.457-1.685a2.839,2.839,0,0,0,2.557-2.075l.39-1.431a2.773,2.773,0,0,0-.864-2.862l.381-.906a2.543,2.543,0,0,0,.364.025,2.839,2.839,0,0,0,1.406-.373l1.3-.737a2.833,2.833,0,0,0,1.38-2.9l1.363-.779a2.834,2.834,0,0,0,1.389.872l1.431.39a2.841,2.841,0,0,0,2.159-.271,3.107,3.107,0,0,0,.881-.813l1.66.457h0l-.3,1.092a1.394,1.394,0,0,0,.982,1.719l2.159.584.008-.025v.008a9.566,9.566,0,1,0,1.812-6.656l-.008.008V3.877l-2.159-.584a1.4,1.4,0,0,0-1.719.991l-.3,1.092h0l-1.617-.44a2.868,2.868,0,0,0-.356-1.3A2.8,2.8,0,0,0,27.953,2.3l-1.44-.373a2.775,2.775,0,0,0-.745-.1,2.843,2.843,0,0,0-2.735,2.092,2.668,2.668,0,0,0-.085.889l-1.533.881a2.83,2.83,0,0,0-3.345-.4l-1.287.737a2.83,2.83,0,0,0-1.059,3.862,2.891,2.891,0,0,0,.457.6L15.758,11.5a1.372,1.372,0,0,0-.186-.008,2.839,2.839,0,0,0-1.406.373,2.8,2.8,0,0,0-1.33,1.719l-.39,1.431A2.832,2.832,0,0,0,13.6,18.1l-.457,1.694h0l-1.092-.3a1.394,1.394,0,0,0-1.719.982l-.584,2.159.017.008H9.754A9.556,9.556,0,0,0,8.213,41.375ZM37.505,7.933A6.241,6.241,0,1,1,41.892,15.6,6.249,6.249,0,0,1,37.505,7.933ZM25.768,3.656a.893.893,0,0,1,.263.034l1.431.39a.957.957,0,0,1,.483.33h-.017a.915.915,0,0,0-.881.677.893.893,0,0,0,.313.948.933.933,0,0,1-.152.017.991.991,0,0,1-.271-.034l-1.431-.39a.586.586,0,0,1-.161-.085l.1-.059a.911.911,0,0,0-.2-1.668A1.034,1.034,0,0,1,25.768,3.656ZM17.223,8.221a.979.979,0,0,1,.474-.61l1.287-.737a1.027,1.027,0,0,1,.5-.135.834.834,0,0,1,.144.017.9.9,0,0,0,.635,1.55c.017,0,.034-.008.051-.008a1.137,1.137,0,0,1-.322.313l-1.287.737a.254.254,0,0,1-.085.034.889.889,0,0,0-.017-.593.916.916,0,0,0-.491-.5.838.838,0,0,0-.356-.076.917.917,0,0,0-.534.178A.379.379,0,0,1,17.223,8.221Zm-3,7.266.39-1.431a1.02,1.02,0,0,1,.364-.517.895.895,0,0,0,.55.9.833.833,0,0,0,.356.068.9.9,0,0,0,.694-.322,1.044,1.044,0,0,1-.025.4l-.39,1.431a1,1,0,0,1-.288.457.9.9,0,0,0-.661-.788,1.145,1.145,0,0,0-.246-.034.9.9,0,0,0-.728.373A1.035,1.035,0,0,1,14.225,15.487ZM4.707,30.5a6.24,6.24,0,1,1,4.378,7.664A6.238,6.238,0,0,1,4.707,30.5Z" transform="translate(-0.084 0)" fill="#2a2f64"/>
      <path id="Path_126" data-name="Path 126" d="M40.512,40.172l1.643-3.811.076.034a1.863,1.863,0,0,0,.7.144,1.784,1.784,0,0,0,1.643-1.084,1.806,1.806,0,0,0-.932-2.363l-8.731-3.76a1.7,1.7,0,0,0-.7-.152,1.8,1.8,0,0,0-.711,3.447l.076.025-4.421,10.23-.068-.034a1.906,1.906,0,0,0-.711-.144,1.793,1.793,0,0,0-1.643,1.084,1.794,1.794,0,0,0,.94,2.354l5.411,2.337.025.008L36.4,49.911a1.724,1.724,0,0,0,.7.152,1.779,1.779,0,0,0,1.643-1.092,1.807,1.807,0,0,0,.127-.415v-.025a1.778,1.778,0,0,0-1.059-1.914l-.076-.025,1.643-3.811a48.066,48.066,0,0,0,12.44,5.4,1.162,1.162,0,0,0,.339.042,1.477,1.477,0,0,0,.813-2.71A47.589,47.589,0,0,0,40.512,40.172Zm12.44,14H31.391a1.812,1.812,0,0,0-1.677,1.135,2.722,2.722,0,0,1-5.047,0,1.8,1.8,0,0,0-1.677-1.135H1.43a.83.83,0,1,0,0,1.66H23.084l.068.152a4.388,4.388,0,0,0,8.087,0l.068-.152H52.961a.831.831,0,0,0,.83-.83A.844.844,0,0,0,52.952,54.171Z" transform="translate(0 -4.471)" fill="#2a2f64"/>
      <path id="Path_127" data-name="Path 127" d="M40.789,52.282a3.142,3.142,0,0,1-.22.728,3.2,3.2,0,0,1-4.226,1.668l-5.327-2.295c-.254.059-.5.135-.711.2a5.4,5.4,0,0,0-2.574,1.389,3.424,3.424,0,0,0-1-.728c-2.032-1.135-7.74-2.795-21.73.737L4.12,56.389H23.53A3.031,3.031,0,0,1,26.358,58.3a1.481,1.481,0,0,0,2.744,0,3.031,3.031,0,0,1,2.828-1.914H51.34l-.881-2.405a72.961,72.961,0,0,0-9.637-1.838Z" transform="translate(-0.539 -7.943)" fill="#2a2f64"/>
    </g>
  </g>
</svg>
