<svg xmlns="http://www.w3.org/2000/svg" width="160" height="160" viewBox="0 0 160 160">
  <g id="icon-car" transform="translate(-4539 -3140)">
    <rect id="Rectangle_74" data-name="Rectangle 74" width="160" height="160" rx="80" transform="translate(4539 3140)" fill="none"/>
    <path id="Path_306" data-name="Path 306" d="M35,8.5l2.55-.85a.934.934,0,0,1,1.063.212.8.8,0,0,1,0,1.275l-.85,1.487Z" transform="translate(4607.375 3211.503)" fill="#cc291f"/>
    <path id="Path_307" data-name="Path 307" d="M35,8.5l2.55-.85a.934.934,0,0,1,1.063.212.8.8,0,0,1,0,1.275l-.85,1.487" transform="translate(4607.375 3211.503)" opacity="0.39"/>
    <path id="Path_308" data-name="Path 308" d="M59.25,48.5,89,33.625,33.75,6,4,20.875Z" transform="translate(4572.5 3209.75)" fill="#262626" opacity="0.3"/>
    <path id="Path_309" data-name="Path 309" d="M58.625,42.162,83.063,30.475,29.938,3.7,5.5,15.387Z" transform="translate(4574.188 3207.163)" fill="#2d3134"/>
    <path id="Path_310" data-name="Path 310" d="M30.6,16.473a5.189,5.189,0,0,0-4.25-.425l-2.338,1.275c-1.275.637-1.912,1.7-1.912,3.613,0,3.4,2.762,7.65,6.162,9.35a5.639,5.639,0,0,0,4.462.425s2.338-1.275,2.55-1.487a3.621,3.621,0,0,0,1.7-3.4C36.762,22.423,34,18.385,30.6,16.473Z" transform="translate(4592.862 3220.74)" fill="#2d3134"/>
    <path id="Path_311" data-name="Path 311" d="M27,27.525a28.368,28.368,0,0,1,2.55-1.275,3.621,3.621,0,0,0,1.7-3.4,7.662,7.662,0,0,0-1.275-4.25l-2.338,1.275a8.807,8.807,0,0,1,1.275,4.25A3.405,3.405,0,0,1,27,27.525Z" transform="translate(4598.375 3223.925)" opacity="0.39"/>
    <path id="Path_312" data-name="Path 312" d="M27.375,17.786c-2.55-1.275-4.675-.213-4.675,2.338s2.125,5.737,4.675,7.012,4.675.213,4.675-2.338C32.263,22.249,30.138,19.061,27.375,17.786Zm3.188,3.188c.425.637.638,1.275.213,1.488a4.744,4.744,0,0,1-2.338-.213c0-.213-.213-.213-.213-.425.213-.637.638-1.7,1.063-1.912C29.5,19.7,30.138,20.124,30.563,20.974Zm-3.187-2.762c.638.425,1.275.85,1.275,1.275A4.343,4.343,0,0,1,27.588,21.4a.208.208,0,0,1-.213-.213h-.213A11.778,11.778,0,0,1,26.1,18.424C26.313,17.786,26.737,17.786,27.375,18.211ZM24.4,17.786a1.12,1.12,0,0,1,1.488.425c.212.425.85,2.125,1.063,2.762-.213,0-.213,0-.213.213A25.577,25.577,0,0,1,24.4,19.061C23.763,18.424,23.975,18,24.4,17.786Zm-1.275,2.55c0-.638.213-1.062.85-.85a19.211,19.211,0,0,1,2.338,2.125v.425a7.968,7.968,0,0,1-2.338-.213A1.423,1.423,0,0,1,23.125,20.336ZM24.4,23.949c-.425-.637-.637-1.275-.213-1.487a4.744,4.744,0,0,1,2.338.212c0,.213.213.213.213.425-.213.637-.638,1.7-1.062,1.912C25.463,25.224,24.825,24.586,24.4,23.949Zm2.975,2.763c-.637-.425-1.275-.85-1.275-1.275a4.343,4.343,0,0,1,1.063-1.912.208.208,0,0,1,.213.212h.213A11.778,11.778,0,0,1,28.65,26.5C28.65,27.136,28.225,27.136,27.375,26.711Zm3.188.212a1.12,1.12,0,0,1-1.487-.425c-.213-.425-.85-2.125-1.062-2.763.212,0,.212,0,.212-.212a25.576,25.576,0,0,1,2.338,2.125C31.2,26.286,30.988,26.711,30.563,26.924Zm.425-1.487a19.211,19.211,0,0,1-2.338-2.125v-.425a7.968,7.968,0,0,1,2.338.213,1.423,1.423,0,0,1,.85,1.488C31.838,25.224,31.625,25.649,30.988,25.436Z" transform="translate(4593.538 3222.401)" fill="#c4c6cc"/>
    <path id="Path_313" data-name="Path 313" d="M27.8,26.862c-2.55-1.275-4.675-4.462-4.675-7.012A2.57,2.57,0,0,1,24.4,17.3a2.661,2.661,0,0,0-1.7,2.763c0,2.55,2.125,5.737,4.675,7.012a3.9,3.9,0,0,0,3.4.213,3.934,3.934,0,0,1-2.975-.425Z" transform="translate(4593.538 3222.462)" opacity="0.06"/>
    <path id="Path_314" data-name="Path 314" d="M34.425,26.524c0,3.4-2.762,4.887-6.162,3.188s-6.162-5.95-6.162-9.35,2.762-4.887,6.162-3.187A11.18,11.18,0,0,1,34.425,26.524Z" transform="translate(4592.862 3221.526)" opacity="0.06"/>
    <path id="Path_315" data-name="Path 315" d="M15.713,9.073a5.189,5.189,0,0,0-4.25-.425L8.913,9.923A3.526,3.526,0,0,0,7,13.323c0,3.4,2.763,7.65,6.162,9.35a5.639,5.639,0,0,0,4.462.425s2.338-1.275,2.55-1.487a3.621,3.621,0,0,0,1.7-3.4C21.875,15.023,19.112,10.773,15.713,9.073Z" transform="translate(4575.875 3212.415)" fill="#2d3134"/>
    <path id="Path_316" data-name="Path 316" d="M12,20.025a28.367,28.367,0,0,1,2.55-1.275,3.621,3.621,0,0,0,1.7-3.4,7.662,7.662,0,0,0-1.275-4.25l-2.337,1.275a8.807,8.807,0,0,1,1.275,4.25C13.912,18.325,13.275,19.6,12,20.025Z" transform="translate(4581.5 3215.488)" opacity="0.39"/>
    <path id="Path_317" data-name="Path 317" d="M12.375,10.286C9.825,9.011,7.7,10.074,7.7,12.624s2.125,5.737,4.675,7.012,4.675.213,4.675-2.337C17.263,14.749,15.137,11.561,12.375,10.286Zm3.188,3.188c.425.638.638,1.275.213,1.487a4.744,4.744,0,0,1-2.338-.212c0-.213-.212-.213-.212-.425.212-.637.638-1.7,1.063-1.912C14.5,12.2,15.137,12.836,15.562,13.474Zm-3.187-2.763c.638.425,1.275.85,1.275,1.275A4.343,4.343,0,0,1,12.588,13.9a.208.208,0,0,1-.213-.212h-.212A11.778,11.778,0,0,1,11.1,10.924c.212-.638.638-.638,1.275-.213ZM9.4,10.5a1.12,1.12,0,0,1,1.487.425c.213.425.85,2.125,1.063,2.763-.212,0-.212,0-.212.212A25.577,25.577,0,0,1,9.4,11.774c-.638-.638-.425-1.062,0-1.275ZM8.125,12.836c0-.638.212-1.062.85-.85a19.211,19.211,0,0,1,2.337,2.125v.425a7.968,7.968,0,0,1-2.337-.213A1.423,1.423,0,0,1,8.125,12.836ZM9.4,16.449c-.425-.637-.638-1.275-.213-1.487a4.744,4.744,0,0,1,2.338.213c0,.212.213.212.213.425-.213.638-.638,1.7-1.062,1.912C10.463,17.724,9.825,17.086,9.4,16.449Zm2.975,2.763c-.637-.425-1.275-.85-1.275-1.275a4.343,4.343,0,0,1,1.063-1.913.208.208,0,0,1,.212.213h.213A11.778,11.778,0,0,1,13.65,19c0,.637-.425.637-1.275.212Zm3.188.425a1.12,1.12,0,0,1-1.487-.425c-.212-.425-.85-2.125-1.062-2.763.213,0,.213,0,.213-.212a25.577,25.577,0,0,1,2.337,2.125c.637.638.425,1.063,0,1.275Zm.425-1.7a19.211,19.211,0,0,1-2.338-2.125v-.425a7.968,7.968,0,0,1,2.338.213,1.423,1.423,0,0,1,.85,1.487c0,.638-.213,1.063-.85.85Z" transform="translate(4576.663 3213.964)" fill="#c4c6cc"/>
    <path id="Path_318" data-name="Path 318" d="M12.8,19.362C10.25,18.087,8.125,14.9,8.125,12.35A2.57,2.57,0,0,1,9.4,9.8a2.661,2.661,0,0,0-1.7,2.763c0,2.55,2.125,5.737,4.675,7.012a3.9,3.9,0,0,0,3.4.213c-.85.425-1.7.213-2.975-.425Z" transform="translate(4576.663 3214.025)" opacity="0.06"/>
    <path id="Path_319" data-name="Path 319" d="M19.537,19.156c0,3.4-2.762,4.888-6.162,3.188S7,16.394,7,12.781s2.763-4.888,6.162-3.188C16.775,11.506,19.537,15.756,19.537,19.156Z" transform="translate(4575.875 3212.956)" opacity="0.06"/>
    <path id="Path_320" data-name="Path 320" d="M73.188,21.25,61.925,8.5l-17-8.5L32.6,1.063,24.525.425,5.4,9.987v8.5l2.337,1.487c1.063-2.337,4.037-3.187,7.225-1.487A14.662,14.662,0,0,1,22.4,28.475l17,8.713c.425-3.612,3.613-4.888,7.438-2.975a14.386,14.386,0,0,1,7.438,10.412l8.5,3.613L85.3,37.188v-8.5Z" transform="translate(4574.075 3203)" fill="#cc291f"/>
    <path id="Path_321" data-name="Path 321" d="M22.8,14.487,42.35,4.5l9.775,11.263-19.55,9.775Z" transform="translate(4593.65 3208.063)" fill="#39c"/>
    <path id="Path_322" data-name="Path 322" d="M46.65,9.5,27.1,19.275l.637.637,19.55-9.775Z" transform="translate(4598.487 3213.688)" fill="#2d3134"/>
    <path id="Path_323" data-name="Path 323" d="M24.8,12.362,40.1,4.5l9.775,11.263Z" transform="translate(4595.9 3208.063)" opacity="0.15"/>
    <path id="Path_324" data-name="Path 324" d="M28.225,1.138,34.6.5,17.387,9,10.8,9.638Z" transform="translate(4580.15 3203.563)" fill="#39c"/>
    <path id="Path_325" data-name="Path 325" d="M28.012,2,17.387,7.313,10.8,7.95Z" transform="translate(4580.15 3205.25)" fill="#fff" opacity="0.39"/>
    <path id="Path_326" data-name="Path 326" d="M54.813,14v3.825l-3.187,1.487v-1.7a3.427,3.427,0,0,1,.637-1.912,5.634,5.634,0,0,1,1.275-1.062L54.812,14ZM32.5,25.262,34.837,24.2a1.309,1.309,0,0,1,1.488.213,1.611,1.611,0,0,1,.425.85V26.75L32.5,28.875Z" transform="translate(4604.563 3218.75)" fill="#fff"/>
    <path id="Path_327" data-name="Path 327" d="M33.063,19.637,32,19v3.825l1.063.425Z" transform="translate(4604 3224.375)" fill="#fc0"/>
    <ellipse id="Ellipse_30" data-name="Ellipse 30" cx="1.275" cy="0.85" rx="1.275" ry="0.85" transform="translate(4641.028 3244.497) rotate(129.144)" fill="#2d3134" opacity="0.39"/>
    <ellipse id="Ellipse_31" data-name="Ellipse 31" cx="1.275" cy="0.85" rx="1.275" ry="0.85" transform="translate(4640.246 3244.464) rotate(129.144)" fill="#2d3134" opacity="0.39"/>
    <ellipse id="Ellipse_32" data-name="Ellipse 32" cx="1.275" cy="0.85" rx="1.275" ry="0.85" transform="translate(4659.688 3234.854) rotate(129.144)" fill="#2d3134" opacity="0.39"/>
    <ellipse id="Ellipse_33" data-name="Ellipse 33" cx="1.275" cy="0.85" rx="1.275" ry="0.85" transform="translate(4658.688 3235.449) rotate(129.144)" fill="#2d3134" opacity="0.39"/>
    <path id="Path_328" data-name="Path 328" d="M35.5,21.112,46.125,15.8v2.55L35.5,23.663Z" transform="translate(4607.938 3220.775)" fill="#2d3134"/>
    <path id="Path_329" data-name="Path 329" d="M6.563,5.725,5.5,5.3V7.85l1.063.638Z" transform="translate(4574.188 3208.962)" fill="#f90"/>
    <path id="Path_330" data-name="Path 330" d="M25.737,15.363l19.125,9.563L35.087,13.45l-9.35-4.675Zm-1.7-7.225L19.362,5.8,9.8,7.287l14.237,7.225Z" transform="translate(4579.025 3209.525)" fill="#39c"/>
    <path id="Path_331" data-name="Path 331" d="M26.8,15.363V9.413l-1.062-.638v6.587l19.125,9.563-.85-1.062ZM10.863,7.287,19.575,5.8h-.212L9.8,7.287l14.238,7.225v-.637Z" transform="translate(4579.025 3209.525)" opacity="0.15"/>
    <path id="Path_332" data-name="Path 332" d="M51.825,26.475,40.563,13.725l-17.638-8.5L11.45,6.287,5.5,4.8v8.5l2.337,1.487c.85-2.55,3.825-3.4,7.012-1.7a14.662,14.662,0,0,1,7.438,9.987l.425.213L39.287,32c.425-3.612,3.613-4.887,7.438-2.975a14.386,14.386,0,0,1,7.438,10.412l8.5,3.612v-8.5Z" transform="translate(4574.188 3208.4)" opacity="0.06"/>
    <path id="Path_333" data-name="Path 333" d="M5.3,7.8,7.425,8.863V12.05L5.3,10.988Z" transform="translate(4573.962 3211.775)" fill="#cc291f"/>
    <path id="Path_334" data-name="Path 334" d="M5.3,7.8,7.425,8.863V12.05L5.3,10.988Z" transform="translate(4573.962 3211.775)" opacity="0.39"/>
    <path id="Path_335" data-name="Path 335" d="M7.425,9.2v3.187l.425-.638V8.563L5.725,7.5,5.3,8.138Zm55.25,31.237L87.112,28.325V26.2L62.675,38.313,60.55,37.25v2.125Z" transform="translate(4573.962 3211.438)" fill="#cc291f"/>
    <path id="Path_336" data-name="Path 336" d="M33.425,30.538,57.862,18.425V16.3L33.425,28.413,31.3,27.35v2.125Z" transform="translate(4603.212 3221.337)" opacity="0.39"/>
    <path id="Path_337" data-name="Path 337" d="M33.425,27.688,56.8,16l1.063.637L33.425,28.75,31.3,27.688l1.062-.425Z" transform="translate(4603.212 3221)" fill="#cc291f"/>
    <path id="Path_338" data-name="Path 338" d="M32.5,25.262l4.25,1.488L32.5,28.875ZM54.813,14v3.825l-3.187,1.487Z" transform="translate(4604.563 3218.75)" fill="#fff" opacity="0.39"/>
    <path id="Path_339" data-name="Path 339" d="M29.512,16.412l-2.125-2.975A1.929,1.929,0,0,0,25.9,12.8l-2.55.212a.85.85,0,0,0,0,1.7l2.975.425,3.188,1.275Z" transform="translate(4593.313 3217.4)" fill="#cc291f"/>
    <path id="Path_340" data-name="Path 340" d="M29.512,16.412l-2.125-2.975A1.929,1.929,0,0,0,25.9,12.8l-2.55.212a.85.85,0,0,0,0,1.7l2.975.425,3.188,1.275Z" transform="translate(4593.313 3217.4)" opacity="0.39"/>
    <path id="Path_341" data-name="Path 341" d="M32.513,13.475c0,.213.212.213.425.213l9.563-2.55c.212,0,.212-.213.212-.425s-.212-.213-.425-.213l-9.562,2.55c-.212,0-.212.213-.212.425ZM27.2,16.237c0,.213.212.213.425.213l9.563-2.55c.212,0,.212-.213.212-.425s-.213-.212-.425-.212l-9.562,2.55c-.212,0-.212.213-.212.425Z" transform="translate(4598.6 3214.813)"/>
    <path id="Path_342" data-name="Path 342" d="M39.467,12.355a3.253,3.253,0,0,0-.85-3.187c-1.488-1.062-3.825-.425-5.525,1.7-1.488,1.7-1.912,3.825-1.062,5.1l1.488-.638c-.637-.85-.425-2.55.637-3.825,1.275-1.487,2.975-2.125,4.038-1.275.637.425.637,1.488.212,2.55Z" transform="translate(4603.545 3212.745)" opacity="0.5"/>
    <path id="Path_343" data-name="Path 343" d="M54.512,16.75,33.262,27.375,22,14.625,43.25,4Zm12.113,7.438L44.313,35.45v5.313l22.313-11.05Z" transform="translate(4592.75 3207.5)" opacity="0.39"/>
  </g>
</svg>
