<svg xmlns="http://www.w3.org/2000/svg" width="571.445" height="245.207" viewBox="0 0 571.445 245.207">
  <g id="logo" transform="translate(-58.217 -30.755)">
    <path id="Path_364" data-name="Path 364" d="M452.522,216.467c-26.417-19.8-41.611-57.339-30.454-94.946,11.193-37.727,44.368-59.07,71.833-61.981-.431,1.324-1.711,1.626-2.644,2.268-12.8,8.809-24.789,18.492-34.142,31.09-15.069,20.3-16.61,41.819-6.067,64.542.965,2.08,2.133,2.472,4.184,2.143,7.985-1.281,15.853-3.28,23.946-3.9,18.279-1.411,33.534,5.565,46.864,17.32,4.856,4.282,5.31,9.36,2.374,14.008a12.534,12.534,0,0,1-15.13,5.325c-7.707-2.809-15.393-5.7-22.961-8.859-2.611-1.09-3.952-.71-5.646,1.513a148.643,148.643,0,0,1-28.47,28.772C454.971,214.694,453.708,215.6,452.522,216.467Z" fill="#f07d22"/>
    <path id="Path_365" data-name="Path 365" d="M540.166,140.013h-18.59V83.206h18.59Z" fill="#f07d22"/>
    <path id="Path_366" data-name="Path 366" d="M496.337,96.413h18.618v43.555H496.337Z" fill="#407dc0"/>
    <path id="Path_367" data-name="Path 367" d="M489.678,139.992H471.027V106.356h18.651Z" fill="#f07d22"/>
    <path id="Path_368" data-name="Path 368" d="M535.88,205.858a7.113,7.113,0,0,1,4.43-6.616c2.884-1.262,5.928-1.087,8.083,1.211,4.454,4.749,8.746,9.674,12.791,14.774,2.452,3.091,1.541,7.675-1.442,10.09a7.36,7.36,0,0,1-10.179-.562c-4.181-4.511-8.112-9.256-12.134-13.914A7.4,7.4,0,0,1,535.88,205.858Z" fill="#f07d22"/>
    <path id="Path_369" data-name="Path 369" d="M527.711,246.784c-2.706-.011-4.539-.6-5.888-2.136-4.07-4.62-8.187-9.207-12.074-13.979a7.553,7.553,0,0,1,11.307-10c4.257,4.608,8.326,9.4,12.291,14.265,1.919,2.354,1.891,5.187.49,7.856A6.993,6.993,0,0,1,527.711,246.784Z" fill="#f07d22"/>
    <path id="Path_370" data-name="Path 370" d="M510.944,249.547c-2.307.043-3.881-.428-5.06-1.7-3.559-3.847-7.157-7.665-10.562-11.645a6.216,6.216,0,0,1,.532-8.867,6.3,6.3,0,0,1,8.918.158c3.718,3.833,7.278,7.826,10.752,11.883a5.779,5.779,0,0,1,.567,6.665A5.966,5.966,0,0,1,510.944,249.547Z" fill="#f07d22"/>
    <path id="Path_371" data-name="Path 371" d="M522.919,217.663c.012-4,1.505-6.392,4.4-7.674,3-1.33,6.1-1.086,8.375,1.369,4.341,4.693,8.551,9.523,12.55,14.508,2.354,2.934,1.618,7.364-1.131,9.862-2.833,2.575-7.226,2.982-9.868.22-4.662-4.876-8.948-10.115-13.31-15.27A4.9,4.9,0,0,1,522.919,217.663Z" fill="#f07d22"/>
    <path id="Path_372" data-name="Path 372" d="M590.9,117.716c-6.053-17.31-25.772-42.041-33.575-41.947,10.4,15.151,15.123,31.746,12.919,50.056-1.292,10.739-4.765,20.488-12.245,28.344l-.006.069s-8.729,10.185-16.945,11.409c-1.626-1.085-3.3-2.121-5.059-3.059-11.723-6.24-23.934-11.216-37.777-8.548A10.437,10.437,0,0,0,500.8,155.2c10.094,3.557,19.746,7.935,27.375,15.73,5.648,5.77,6.465,11.838,2.686,17.693a15.516,15.516,0,0,1-18.28,6.579q-10.751-3.822-21.311-8.17c-2.617-1.081-4.05-.629-5.764,1.6a147.269,147.269,0,0,1-22.6,23.416c-3.152,2.627-6.527,4.984-9.7,7.58-2.853,2.332-3.624,6.52-1.853,9.117,2.023,2.967,4.965,3.258,8.857,1.07,5.977-3.36,11.3-7.646,16.892-11.625-3.889,5.135-7.812,10.179-13.638,13.357-1.257.685-3.018,1.2-2.83,3.277.178,1.964,1.489,2.99,3.1,3.667a8.691,8.691,0,0,0,7.968-.373c5.435-2.9,10.166-6.866,15.5-9.9a2.244,2.244,0,0,1,2.169-1.768,2.386,2.386,0,0,1-1.7,2.2c-3.343,5.554-9.1,8.593-14.026,12.689,4.895,3.08,16.96,1.074,20.865-3.139-2.948-3.153-3.821-6.852-1.641-10.621,2.812-4.861,7.347-4.809,12-3.183,4.11-7.958,6.5-9.292,15.019-8.41,1.479-6.974,6.079-9.962,12.97-9.446,1.14-6.87,4.309-10.283,9.748-10.661a10.292,10.292,0,0,1,8.946,3.834c3.979,4.619,8.049,9.159,12.054,13.7C591.926,191.584,603,152.319,590.9,117.716Z" fill="#407dc0"/>
    <path id="Path_373" data-name="Path 373" d="M507.059,30.755a122.6,122.6,0,1,0,122.6,122.6A122.6,122.6,0,0,0,507.059,30.755Zm0,236.237A113.634,113.634,0,1,1,620.693,153.359,113.634,113.634,0,0,1,507.059,266.992Z" fill="#407dc0"/>
    <g id="Group_64" data-name="Group 64">
      <path id="Path_374" data-name="Path 374" d="M212.6,223.276V195.423c5.587-1.061,11-1.776,16.451-.37,5.411,1.4,8.176,4.447,8.389,9.923.234,6,.053,12.014.053,18.3Zm19.62-4.614V206.088c0-4.171-2.479-6.248-6.238-6.767a59.343,59.343,0,0,0-7.913-.067v19.408Z" fill="#f07d22"/>
      <path id="Path_375" data-name="Path 375" d="M284.162,209.333c.017,9.152-5.259,15.029-13.476,15.01-8.011-.018-13.334-5.86-13.416-14.725-.084-9.048,5.3-15.212,13.326-15.259C278.739,194.311,284.145,200.278,284.162,209.333Zm-5.706.026a12.426,12.426,0,0,0-1.622-6.794,7.083,7.083,0,0,0-11.393-1.129c-3.11,3.612-3.249,11.843-.255,15.534a6.745,6.745,0,0,0,5.455,2.62C275.454,219.627,278.468,215.7,278.456,209.359Z" fill="#f07d22"/>
      <path id="Path_376" data-name="Path 376" d="M105.955,195.619a7.9,7.9,0,0,1,5.4-.016c0,5.266-.041,10.618.018,15.969.029,2.564.624,4.948,2.895,6.577,4.688,3.363,10.734,1.038,11.737-4.681a47.514,47.514,0,0,0,.376-7.453c.037-2.5.213-5.248-2.461-6.59-2.469-1.239-4.041,1.035-5.9,2.177-1.181-.829-2.123-1.7-1.071-3.188,1.661-2.345,3.742-4.027,6.806-4.056,2.928-.027,5.321,1.235,6.291,3.891,2.524,6.911,2.58,13.992-.668,20.643-2.1,4.3-7.805,6.372-13.02,5.316-5.02-1.017-8.627-3.847-9.715-9.094C105.293,208.631,106.272,202.085,105.955,195.619Z" fill="#f07d22"/>
      <path id="Path_377" data-name="Path 377" d="M352.887,207.893c1.2,2.618.487,3.747-2.3,3.861-4.89.2-7.758-2.207-8.1-7.051-.054-.784-.014-1.575-.016-2.363-.02-7.309.371-7.7,7.95-7.968,11.463-.4,17.662,6.105,16.411,17.23-1.033,9.19-10.1,14.726-20.5,12.422-1.215-.268-2.672-.2-3.676-1.516-.183-1.358.429-2.631,1.024-4.132,3.562,1.008,7.064,1.831,10.745.552,5.467-1.9,7.9-5.968,6.9-12.006-.844-5.073-4.612-7.939-10.153-7.817-1.992.044-3.8.14-3.556,2.873.2,2.331-.852,5.315,2.981,5.757C351.369,207.822,352.139,207.842,352.887,207.893Z" fill="#f07d22"/>
      <path id="Path_378" data-name="Path 378" d="M59.743,195.379c5.6-.992,10.913-1.718,16.257-.356,5.655,1.442,8.338,4.478,8.533,10.227.2,5.883.044,11.779.044,17.648-1.5,1.227-3.08.361-5.166.788,0-4.994-.164-9.661.035-14.313.408-9.552-4.259-10.628-12.609-10.2-2.2.113-1.984,1.648-1.985,3.089-.006,6.927,0,13.853,0,20.719-1.762.913-3.3.528-5.106.393Z" fill="#f07d22"/>
      <path id="Path_379" data-name="Path 379" d="M149.759,223.35v-4.519h17.613c0-3.779.084-7.153-.018-10.521-.184-6.084-2.834-8.775-8.928-9.151a16.533,16.533,0,0,0-7.217.767c-1.212-1.486-1.047-2.886-.858-4.593a23.753,23.753,0,0,1,16,.594c3.6,1.495,5.255,4.5,5.884,8.23.79,4.677.056,9.411.5,13.99,1.169,1.165,2.67.24,3.918.984.807,1.263.231,2.648.3,4.219Z" fill="#f07d22"/>
      <path id="Path_380" data-name="Path 380" d="M321.365,223.354H308.108a7.451,7.451,0,0,1-.233-4.109c2.58-1.123,5.438.158,8.321-.9,0-4.874.157-9.838-.05-14.787-.159-3.778-1.948-4.676-7.457-4.3-.8-4.485-.415-4.949,4.1-4.9,5.244.055,8.29,2.513,8.5,7.7C321.582,209.08,321.365,216.124,321.365,223.354Z" fill="#f07d22"/>
      <path id="Path_381" data-name="Path 381" d="M301.944,223.343H288.609c-.718-1.4-.306-2.681-.364-4.093,2.687-1.016,5.5-.02,8.47-.737,0-5.154.157-10.232-.054-15.294-.146-3.489-2.1-4.375-7.4-3.873-.822-4.5-.4-5.019,4.043-4.987,5.09.038,8.289,2.369,8.543,7.271C302.22,208.781,301.944,215.965,301.944,223.343Z" fill="#f07d22"/>
      <path id="Path_382" data-name="Path 382" d="M97.765,223.287A9.415,9.415,0,0,1,92.8,223.2V195.565c1.631-.7,3.164-.407,4.968-.237Z" fill="#f07d22"/>
      <path id="Path_383" data-name="Path 383" d="M182.62,195.37a9.52,9.52,0,0,1,5,.175v27.622a9.488,9.488,0,0,1-5,.151Z" fill="#f07d22"/>
      <path id="Path_384" data-name="Path 384" d="M144.029,195.462v14.525h-5.042V195.53A8.167,8.167,0,0,1,144.029,195.462Z" fill="#f07d22"/>
      <path id="Path_385" data-name="Path 385" d="M245.7,195.383a9.592,9.592,0,0,1,4.988.143v14.23a9.639,9.639,0,0,1-4.988.185Z" fill="#f07d22"/>
      <path id="Path_386" data-name="Path 386" d="M334.943,209.86a9.537,9.537,0,0,1-4.932-.014V195.554c1.573-.709,3.107-.371,4.932-.243Z" fill="#f07d22"/>
    </g>
    <g id="Group_65" data-name="Group 65">
      <path id="Path_387" data-name="Path 387" d="M142.192,144.295a5.34,5.34,0,0,0-2.9,1.639,6.345,6.345,0,0,0-1.322,3.218,34.563,34.563,0,0,0-.316,5.145v16.151a78.3,78.3,0,0,1-16.18,5.137,95.535,95.535,0,0,1-19.112,1.761,52.738,52.738,0,0,1-13.68-1.667,43.272,43.272,0,0,1-11.093-4.6,37.818,37.818,0,0,1-8.535-6.926,39.632,39.632,0,0,1-6.064-8.708,41.943,41.943,0,0,1-3.593-9.915,47.3,47.3,0,0,1-1.178-10.489,41.625,41.625,0,0,1,5.345-20.348,42.974,42.974,0,0,1,6.467-8.708,40.679,40.679,0,0,1,8.794-6.926,45.426,45.426,0,0,1,10.978-4.6,48.543,48.543,0,0,1,13.019-1.667,58.414,58.414,0,0,1,7.53.431,49.162,49.162,0,0,1,5.834,1.092,40.27,40.27,0,0,1,4.541,1.437q1.981.776,3.592,1.437t3.017,1.092a9.873,9.873,0,0,0,2.9.431,3.733,3.733,0,0,0,3.075-1.81,15.841,15.841,0,0,0,2.1-4.225h2.242v28.337h-2.357a30.437,30.437,0,0,0-4.483-9.743,34.119,34.119,0,0,0-7.013-7.415,31.913,31.913,0,0,0-8.449-4.741,25.288,25.288,0,0,0-8.852-1.667,24.953,24.953,0,0,0-12.731,2.993,23.3,23.3,0,0,0-8.277,8.117,36.166,36.166,0,0,0-4.483,11.974,74.864,74.864,0,0,0-1.351,14.507q0,5.124.46,9.93a54.68,54.68,0,0,0,1.581,8.98,33.352,33.352,0,0,0,3.046,7.627,21.668,21.668,0,0,0,4.8,5.93,20.517,20.517,0,0,0,6.811,3.828,28.241,28.241,0,0,0,9.168,1.352,38.824,38.824,0,0,0,7.271-.6,22.756,22.756,0,0,0,6.064-2.1V154.3a23.952,23.952,0,0,0-.46-5.145,6.566,6.566,0,0,0-1.609-3.218,6.245,6.245,0,0,0-3.161-1.639,23.932,23.932,0,0,0-5.173-.46v-2.241h38.74v2.241A22,22,0,0,0,142.192,144.295Z" fill="#407dc0"/>
      <path id="Path_388" data-name="Path 388" d="M244.216,165.706a27.961,27.961,0,0,1-3.908,5.432,22.043,22.043,0,0,1-5.6,4.4,15.519,15.519,0,0,1-7.674,1.811,20.346,20.346,0,0,1-5.949-.834,23.763,23.763,0,0,1-5.087-2.213,31.289,31.289,0,0,1-4.483-3.19q-2.127-1.811-4.138-3.765-2.358,1.725-5.231,3.507a45.81,45.81,0,0,1-6.265,3.218,45.223,45.223,0,0,1-7.3,2.357,36.636,36.636,0,0,1-8.391.92,30.569,30.569,0,0,1-10.088-1.552,22.756,22.756,0,0,1-7.558-4.25A18.227,18.227,0,0,1,157.8,165.2a18.914,18.914,0,0,1-1.638-7.841,20.782,20.782,0,0,1,1.091-6.834,23.568,23.568,0,0,1,2.932-5.8,27,27,0,0,1,4.311-4.824,48.3,48.3,0,0,1,5.231-4.021,52.955,52.955,0,0,1,5.69-3.3q2.931-1.466,5.69-2.671-.172-.4-.747-1.781a32.786,32.786,0,0,1-1.178-3.475,48.86,48.86,0,0,1-1.093-4.8,31.965,31.965,0,0,1-.488-5.686,21.088,21.088,0,0,1,1.753-8.731,20.228,20.228,0,0,1,4.828-6.721,21.537,21.537,0,0,1,7.242-4.336,26.017,26.017,0,0,1,9-1.522,23.594,23.594,0,0,1,7.529,1.119,17.586,17.586,0,0,1,5.662,3.041,13.294,13.294,0,0,1,3.564,4.476,12.432,12.432,0,0,1,1.235,5.481,14.052,14.052,0,0,1-1.983,7.488,22.057,22.057,0,0,1-5,5.681,34.394,34.394,0,0,1-6.7,4.218q-3.678,1.779-7.012,3.157,2.125,3.62,4.282,6.895t4.455,6.351q2.3,3.077,4.771,6.093t5.23,6.122q1.839-2.07,3.535-4.369a41.239,41.239,0,0,0,2.96-4.6,27.612,27.612,0,0,0,2.012-4.541,13.483,13.483,0,0,0,.747-4.253,6.1,6.1,0,0,0-1.724-4.6,8.544,8.544,0,0,0-4.828-2.127v-2.357H244.1v2.357a15.9,15.9,0,0,0-4.081.862,9.224,9.224,0,0,0-3.046,1.925,17.436,17.436,0,0,0-2.673,3.306q-1.293,2.012-3.017,4.943-2.07,3.564-4.828,7.7a106.212,106.212,0,0,1-6.841,9.024q2.76,2.53,4.972,4.368a40.631,40.631,0,0,0,4.11,3.047,16.761,16.761,0,0,0,3.593,1.781,10.56,10.56,0,0,0,3.419.575,6.989,6.989,0,0,0,4.943-1.868,20.317,20.317,0,0,0,3.679-4.742l2.472,1.322Q245.768,162.861,244.216,165.706Zm-53.34-17.9q-2.3-3.392-4.311-6.9t-3.793-7.127a24.405,24.405,0,0,0-4,2.126,17.6,17.6,0,0,0-3.448,2.961,13.2,13.2,0,0,0-2.414,3.88,12.966,12.966,0,0,0-.892,4.943,19.533,19.533,0,0,0,1.639,7.817,24.045,24.045,0,0,0,4.311,6.725,22.144,22.144,0,0,0,6.035,4.712,14.5,14.5,0,0,0,6.868,1.783,13.992,13.992,0,0,0,4.283-.69,29.963,29.963,0,0,0,3.937-1.553,26.485,26.485,0,0,0,3.046-1.7q1.263-.832,1.667-1.12A117.229,117.229,0,0,1,190.876,147.8Zm16.382-36.959a18.566,18.566,0,0,0-.661-4.972,15.329,15.329,0,0,0-1.869-4.253,10.065,10.065,0,0,0-2.9-2.989,6.686,6.686,0,0,0-3.765-1.121,7.051,7.051,0,0,0-3.535.834,7.619,7.619,0,0,0-2.414,2.126,8.687,8.687,0,0,0-1.379,2.874,11.848,11.848,0,0,0-.431,3.133,19.676,19.676,0,0,0,.66,4.8q.661,2.616,1.524,5.058t1.782,4.483q.918,2.042,1.437,3.076,1.436-.633,3.448-1.552a16.173,16.173,0,0,0,3.794-2.443,14,14,0,0,0,3.046-3.736,10.8,10.8,0,0,0,1.265-5.432Z" fill="#407dc0"/>
      <path id="Path_389" data-name="Path 389" d="M325.2,175.564v-2.242a30.556,30.556,0,0,0,5.92-.46,6.94,6.94,0,0,0,3.478-1.638,5.888,5.888,0,0,0,1.638-3.219,27.381,27.381,0,0,0,.4-5.144V101.647l-31.068,73.917h-1.436L272.61,102.106v60.755q0,5.519,2.931,7.99t8.853,2.471v2.242H256.689v-2.242q5.689,0,8.564-2.471t2.874-7.99V107.279a27.4,27.4,0,0,0-.4-5.144,5.88,5.88,0,0,0-1.639-3.218,6.945,6.945,0,0,0-3.477-1.639,30.63,30.63,0,0,0-5.92-.46V94.577h33.222l22.7,53.34,21.9-53.34h32.475v2.241a31.1,31.1,0,0,0-5.949.46,6.968,6.968,0,0,0-3.506,1.639,6.028,6.028,0,0,0-1.667,3.218,25.549,25.549,0,0,0-.431,5.144v55.582a25.529,25.529,0,0,0,.431,5.144,6.031,6.031,0,0,0,1.667,3.219,6.959,6.959,0,0,0,3.506,1.638,31.015,31.015,0,0,0,5.949.46v2.242Z" fill="#407dc0"/>
    </g>
  </g>
</svg>
